<svg id="svg" version="1.1" xmlns="http://www.w3.org/2000/svg" xmlns:xlink="http://www.w3.org/1999/xlink" width="400" height="400" viewBox="0, 0, 400,400"><g id="svgg"><path id="path0" d="M37.700 0.272 C 36.545 0.365,35.600 0.612,35.600 0.821 C 35.600 1.029,35.060 1.200,34.400 1.200 C 33.740 1.200,33.200 1.380,33.200 1.600 C 33.200 1.820,32.660 2.000,32.000 2.000 C 31.340 2.000,30.800 2.180,30.800 2.400 C 30.800 2.620,30.457 2.800,30.038 2.800 C 29.222 2.800,25.888 4.401,25.667 4.900 C 25.593 5.065,25.228 5.200,24.855 5.200 C 24.482 5.200,23.917 5.560,23.600 6.000 C 23.283 6.440,22.703 6.800,22.312 6.800 C 21.920 6.800,21.600 6.980,21.600 7.200 C 21.600 7.420,21.306 7.600,20.947 7.600 C 20.588 7.600,20.003 7.933,19.647 8.341 C 19.291 8.748,18.460 9.364,17.800 9.709 C 16.170 10.562,9.600 17.187,9.600 17.978 C 9.600 18.190,9.150 18.814,8.600 19.364 C 8.050 19.914,7.600 20.642,7.600 20.982 C 7.600 21.322,7.420 21.600,7.200 21.600 C 6.980 21.600,6.800 21.920,6.800 22.312 C 6.800 22.703,6.440 23.283,6.000 23.600 C 5.560 23.917,5.200 24.482,5.200 24.855 C 5.200 25.228,5.065 25.593,4.900 25.667 C 4.401 25.888,2.800 29.222,2.800 30.038 C 2.800 30.457,2.620 30.800,2.400 30.800 C 2.180 30.800,2.000 31.340,2.000 32.000 C 2.000 32.660,1.820 33.200,1.600 33.200 C 1.380 33.200,1.200 33.725,1.200 34.367 C 1.200 35.008,0.975 35.608,0.700 35.700 C -0.035 35.945,-0.035 227.255,0.700 227.500 C 0.987 227.596,1.200 228.336,1.200 229.233 C 1.200 230.095,1.380 230.800,1.600 230.800 C 1.820 230.800,2.000 231.239,2.000 231.776 C 2.000 232.313,2.180 232.864,2.400 233.000 C 2.620 233.136,2.800 233.597,2.800 234.024 C 2.800 234.451,2.980 234.800,3.200 234.800 C 3.420 234.800,3.600 235.160,3.600 235.600 C 3.600 236.040,3.780 236.400,4.000 236.400 C 4.220 236.400,4.400 236.760,4.400 237.200 C 4.400 237.640,4.580 238.000,4.800 238.000 C 5.020 238.000,5.200 238.360,5.200 238.800 C 5.200 239.240,5.380 239.600,5.600 239.600 C 5.820 239.600,6.000 239.830,6.000 240.112 C 6.000 240.393,6.360 240.883,6.800 241.200 C 7.240 241.517,7.600 242.097,7.600 242.488 C 7.600 242.880,7.750 243.200,7.932 243.200 C 8.115 243.200,8.520 243.695,8.832 244.300 C 9.647 245.879,9.795 246.050,14.122 250.430 C 16.280 252.614,18.239 254.400,18.475 254.400 C 18.712 254.400,19.197 254.728,19.553 255.128 C 19.909 255.529,21.010 256.294,22.000 256.828 C 22.990 257.363,24.038 258.025,24.329 258.300 C 24.619 258.575,25.194 258.800,25.605 258.800 C 26.016 258.800,26.464 258.980,26.600 259.200 C 26.736 259.420,27.197 259.600,27.624 259.600 C 28.051 259.600,28.400 259.780,28.400 260.000 C 28.400 260.220,28.760 260.400,29.200 260.400 C 29.640 260.400,30.000 260.580,30.000 260.800 C 30.000 261.020,30.439 261.200,30.976 261.200 C 31.513 261.200,32.064 261.380,32.200 261.600 C 32.336 261.820,32.977 262.000,33.624 262.000 C 34.271 262.000,34.800 262.180,34.800 262.400 C 34.800 262.620,35.520 262.800,36.400 262.800 C 37.280 262.800,38.000 262.980,38.000 263.200 C 38.000 263.422,39.067 263.600,40.400 263.600 C 41.733 263.600,42.800 263.778,42.800 264.000 C 42.800 264.248,45.000 264.400,48.600 264.400 C 52.200 264.400,54.400 264.248,54.400 264.000 C 54.400 263.780,55.390 263.600,56.600 263.600 C 57.810 263.600,58.800 263.420,58.800 263.200 C 58.800 262.980,59.520 262.800,60.400 262.800 C 61.280 262.800,62.000 262.620,62.000 262.400 C 62.000 262.180,62.619 262.000,63.376 262.000 C 64.133 262.000,64.864 261.820,65.000 261.600 C 65.136 261.380,65.597 261.200,66.024 261.200 C 66.451 261.200,66.800 261.020,66.800 260.800 C 66.800 260.580,67.340 260.400,68.000 260.400 C 68.660 260.400,69.200 260.220,69.200 260.000 C 69.200 259.780,69.560 259.600,70.000 259.600 C 70.440 259.600,70.800 259.420,70.800 259.200 C 70.800 258.980,71.149 258.800,71.576 258.800 C 72.003 258.800,72.461 258.625,72.593 258.411 C 72.726 258.197,73.411 257.747,74.117 257.411 C 74.823 257.075,76.030 256.260,76.800 255.601 C 77.570 254.941,78.341 254.401,78.513 254.401 C 79.017 254.399,88.000 245.271,88.000 244.760 C 88.000 244.503,88.315 244.002,88.700 243.646 C 89.929 242.509,91.211 240.445,91.459 239.204 C 91.592 238.542,91.858 238.000,92.050 238.000 C 92.243 238.000,92.400 237.640,92.400 237.200 C 92.400 236.760,92.580 236.400,92.800 236.400 C 93.020 236.400,93.200 236.040,93.200 235.600 C 93.200 235.160,93.380 234.800,93.600 234.800 C 93.820 234.800,94.000 234.440,94.000 234.000 C 94.000 233.560,94.180 233.200,94.400 233.200 C 94.620 233.200,94.800 232.675,94.800 232.033 C 94.800 231.392,94.977 230.807,95.194 230.733 C 95.410 230.660,95.685 229.250,95.804 227.600 C 95.923 225.950,96.199 223.880,96.418 223.000 C 96.888 221.107,97.167 38.800,96.700 38.800 C 96.535 38.800,96.400 38.080,96.400 37.200 C 96.400 36.320,96.220 35.600,96.000 35.600 C 95.780 35.600,95.600 34.981,95.600 34.224 C 95.600 33.467,95.420 32.736,95.200 32.600 C 94.980 32.464,94.800 32.003,94.800 31.576 C 94.800 31.149,94.620 30.800,94.400 30.800 C 94.180 30.800,94.000 30.470,94.000 30.067 C 94.000 28.776,89.243 19.878,87.955 18.761 C 87.540 18.401,87.200 17.892,87.200 17.631 C 87.200 17.017,79.684 9.600,79.063 9.600 C 78.804 9.600,78.107 9.150,77.513 8.600 C 76.920 8.050,76.234 7.600,75.989 7.600 C 75.744 7.600,75.306 7.375,75.016 7.100 C 73.678 5.830,72.743 5.200,72.195 5.200 C 71.868 5.200,71.600 5.020,71.600 4.800 C 71.600 4.580,71.240 4.400,70.800 4.400 C 70.360 4.400,70.000 4.220,70.000 4.000 C 70.000 3.780,69.640 3.600,69.200 3.600 C 68.760 3.600,68.400 3.420,68.400 3.200 C 68.400 2.980,67.860 2.800,67.200 2.800 C 66.540 2.800,66.000 2.620,66.000 2.400 C 66.000 2.180,65.460 2.000,64.800 2.000 C 64.140 2.000,63.600 1.820,63.600 1.600 C 63.600 1.380,63.075 1.200,62.433 1.200 C 61.792 1.200,61.193 0.980,61.104 0.711 C 60.940 0.219,42.613 -0.125,37.700 0.272 M55.372 34.112 C 70.749 41.306,67.819 63.754,51.153 66.439 C 35.195 69.008,24.805 49.314,36.129 37.960 C 41.251 32.825,49.216 31.232,55.372 34.112 M304.400 288.400 C 304.400 288.620,303.410 288.800,302.200 288.800 C 300.990 288.800,300.000 288.980,300.000 289.200 C 300.000 289.420,299.370 289.600,298.600 289.600 C 297.830 289.600,297.200 289.780,297.200 290.000 C 297.200 290.220,296.671 290.400,296.024 290.400 C 295.377 290.400,294.736 290.580,294.600 290.800 C 294.464 291.020,293.924 291.200,293.400 291.200 C 292.876 291.200,292.336 291.380,292.200 291.600 C 292.064 291.820,291.648 292.001,291.276 292.002 C 290.904 292.004,290.084 292.274,289.454 292.602 C 288.824 292.931,288.059 293.200,287.754 293.200 C 287.449 293.200,287.200 293.380,287.200 293.600 C 287.200 293.820,286.840 294.000,286.400 294.000 C 285.960 294.000,285.600 294.180,285.600 294.400 C 285.600 294.620,285.364 294.800,285.075 294.800 C 284.787 294.800,284.164 295.160,283.692 295.600 C 283.220 296.040,282.622 296.400,282.364 296.400 C 282.105 296.400,281.603 296.732,281.247 297.137 C 280.891 297.543,280.402 297.948,280.161 298.037 C 278.587 298.620,269.827 307.056,269.400 308.399 C 269.250 308.873,269.027 309.160,268.904 309.037 C 268.659 308.793,266.801 310.806,266.800 311.317 C 266.800 311.491,266.440 312.020,266.000 312.492 C 265.560 312.964,265.200 313.587,265.200 313.875 C 265.200 314.164,265.041 314.400,264.847 314.400 C 264.652 314.400,264.393 314.715,264.271 315.100 C 263.974 316.037,262.698 318.128,262.200 318.494 C 261.980 318.656,261.956 318.791,262.146 318.794 C 262.336 318.797,262.201 319.244,261.846 319.786 C 261.491 320.328,261.200 321.138,261.200 321.586 C 261.200 322.034,261.020 322.400,260.800 322.400 C 260.580 322.400,260.400 322.724,260.400 323.120 C 260.400 323.516,260.184 324.056,259.920 324.320 C 259.656 324.584,259.571 324.800,259.730 324.800 C 259.890 324.800,259.770 325.295,259.463 325.900 C 259.156 326.505,258.956 327.314,259.017 327.698 C 259.079 328.083,258.965 328.498,258.764 328.622 C 258.564 328.746,258.400 329.557,258.400 330.424 C 258.400 331.291,258.220 332.000,258.000 332.000 C 257.778 332.000,257.600 333.067,257.600 334.400 C 257.600 335.733,257.422 336.800,257.200 336.800 C 256.947 336.800,256.800 339.600,256.800 344.400 C 256.800 349.200,256.947 352.000,257.200 352.000 C 257.420 352.000,257.600 352.990,257.600 354.200 C 257.600 355.410,257.780 356.400,258.000 356.400 C 258.220 356.400,258.400 357.109,258.400 357.976 C 258.400 358.843,258.564 359.654,258.764 359.778 C 258.965 359.902,259.078 360.317,259.016 360.702 C 258.954 361.086,259.041 361.580,259.211 361.800 C 259.380 362.020,259.784 363.100,260.108 364.200 C 260.782 366.483,263.597 372.533,264.079 372.733 C 264.256 372.807,264.400 373.122,264.400 373.433 C 264.400 373.745,264.580 374.000,264.800 374.000 C 265.020 374.000,265.200 374.230,265.200 374.512 C 265.200 374.793,265.560 375.283,266.000 375.600 C 266.440 375.917,266.800 376.425,266.800 376.728 C 266.800 377.031,267.340 377.783,268.000 378.400 C 268.660 379.017,269.200 379.725,269.200 379.974 C 269.200 380.971,278.802 389.946,281.100 391.097 C 281.815 391.455,282.400 391.895,282.400 392.074 C 282.400 392.253,282.760 392.400,283.200 392.400 C 283.640 392.400,284.000 392.580,284.000 392.800 C 284.000 393.020,284.360 393.200,284.800 393.200 C 285.240 393.200,285.600 393.380,285.600 393.600 C 285.600 393.820,285.960 394.000,286.400 394.000 C 286.840 394.000,287.200 394.180,287.200 394.400 C 287.200 394.620,287.560 394.800,288.000 394.800 C 288.440 394.800,288.800 394.980,288.800 395.200 C 288.800 395.420,289.160 395.600,289.600 395.600 C 290.040 395.600,290.400 395.780,290.400 396.000 C 290.400 396.220,290.760 396.400,291.200 396.400 C 291.640 396.400,292.000 396.580,292.000 396.800 C 292.000 397.020,292.450 397.200,293.000 397.200 C 293.550 397.200,294.000 397.380,294.000 397.600 C 294.000 397.820,294.540 398.000,295.200 398.000 C 295.860 398.000,296.400 398.180,296.400 398.400 C 296.400 398.620,297.105 398.800,297.967 398.800 C 298.864 398.800,299.604 399.013,299.700 399.300 C 299.829 399.686,302.831 399.800,312.913 399.800 C 322.817 399.800,326.080 399.680,326.460 399.300 C 326.735 399.025,327.464 398.800,328.080 398.800 C 328.696 398.800,329.200 398.620,329.200 398.400 C 329.200 398.180,329.740 398.000,330.400 398.000 C 331.060 398.000,331.600 397.820,331.600 397.600 C 331.600 397.380,332.140 397.200,332.800 397.200 C 333.460 397.200,334.000 397.020,334.000 396.800 C 334.000 396.580,334.272 396.400,334.605 396.400 C 334.938 396.400,335.523 396.232,335.905 396.026 C 336.287 395.821,337.185 395.417,337.900 395.129 C 338.615 394.840,339.200 394.469,339.200 394.302 C 339.200 394.136,339.520 394.000,339.912 394.000 C 340.303 394.000,340.883 393.640,341.200 393.200 C 341.517 392.760,342.097 392.400,342.488 392.400 C 342.880 392.400,343.200 392.240,343.200 392.043 C 343.200 391.847,343.605 391.582,344.100 391.454 C 344.595 391.326,345.523 390.766,346.162 390.210 C 346.801 389.655,347.480 389.200,347.670 389.200 C 348.335 389.200,357.883 379.248,358.388 378.029 C 358.668 377.353,359.055 376.800,359.249 376.800 C 359.442 376.800,359.600 376.483,359.600 376.096 C 359.600 375.709,359.960 375.168,360.400 374.893 C 360.840 374.618,361.200 374.125,361.200 373.797 C 361.200 373.468,361.380 373.200,361.600 373.200 C 361.820 373.200,362.000 372.840,362.000 372.400 C 362.000 371.960,362.180 371.600,362.400 371.600 C 362.620 371.600,362.800 371.330,362.800 371.000 C 362.800 370.670,362.980 370.400,363.200 370.400 C 363.420 370.400,363.600 370.040,363.600 369.600 C 363.600 369.160,363.780 368.800,364.000 368.800 C 364.220 368.800,364.400 368.350,364.400 367.800 C 364.400 367.250,364.580 366.800,364.800 366.800 C 365.020 366.800,365.200 366.440,365.200 366.000 C 365.200 365.560,365.380 365.200,365.600 365.200 C 365.820 365.200,366.000 364.660,366.000 364.000 C 366.000 363.340,366.180 362.800,366.400 362.800 C 366.620 362.800,366.800 362.260,366.800 361.600 C 366.800 360.940,366.980 360.400,367.200 360.400 C 367.420 360.400,367.600 359.781,367.600 359.024 C 367.600 358.267,367.780 357.536,368.000 357.400 C 368.220 357.264,368.400 356.364,368.400 355.400 C 368.400 354.436,368.580 353.536,368.800 353.400 C 369.047 353.247,369.200 349.737,369.200 344.200 C 369.200 338.663,369.047 335.153,368.800 335.000 C 368.580 334.864,368.400 333.863,368.400 332.776 C 368.400 331.689,368.220 330.800,368.000 330.800 C 367.780 330.800,367.600 330.181,367.600 329.424 C 367.600 328.667,367.420 327.936,367.200 327.800 C 366.980 327.664,366.800 327.113,366.800 326.576 C 366.800 326.039,366.620 325.600,366.400 325.600 C 366.180 325.600,366.000 325.060,366.000 324.400 C 366.000 323.740,365.820 323.200,365.600 323.200 C 365.380 323.200,365.200 322.840,365.200 322.400 C 365.200 321.960,365.020 321.600,364.800 321.600 C 364.580 321.600,364.400 321.240,364.400 320.800 C 364.400 320.360,364.220 320.000,364.000 320.000 C 363.780 320.000,363.600 319.640,363.600 319.200 C 363.600 318.760,363.420 318.400,363.200 318.400 C 362.980 318.400,362.800 318.040,362.800 317.600 C 362.800 317.160,362.620 316.800,362.400 316.800 C 362.180 316.800,362.000 316.440,362.000 316.000 C 362.000 315.560,361.820 315.200,361.600 315.200 C 361.380 315.200,361.200 314.880,361.200 314.488 C 361.200 314.097,360.840 313.517,360.400 313.200 C 359.960 312.883,359.600 312.293,359.600 311.888 C 359.600 311.484,359.420 311.264,359.200 311.400 C 358.980 311.536,358.800 311.376,358.800 311.043 C 358.800 310.711,358.556 310.296,358.258 310.120 C 357.961 309.944,357.494 309.377,357.223 308.860 C 356.581 307.637,348.545 299.600,347.965 299.600 C 347.721 299.600,347.017 299.060,346.400 298.400 C 345.783 297.740,345.031 297.200,344.728 297.200 C 344.425 297.200,343.924 296.850,343.615 296.421 C 343.307 295.993,342.922 295.725,342.759 295.825 C 342.597 295.925,342.225 295.773,341.932 295.486 C 341.215 294.784,335.364 292.000,334.605 292.000 C 334.272 292.000,334.000 291.820,334.000 291.600 C 334.000 291.380,333.460 291.200,332.800 291.200 C 332.140 291.200,331.600 291.020,331.600 290.800 C 331.600 290.580,331.060 290.400,330.400 290.400 C 329.740 290.400,329.200 290.220,329.200 290.000 C 329.200 289.780,328.480 289.600,327.600 289.600 C 326.720 289.600,326.000 289.420,326.000 289.200 C 326.000 288.980,325.111 288.800,324.024 288.800 C 322.937 288.800,321.936 288.620,321.800 288.400 C 321.648 288.153,318.263 288.000,312.976 288.000 C 307.525 288.000,304.400 288.146,304.400 288.400 M290.444 322.718 C 291.630 323.334,293.275 324.234,294.100 324.718 C 294.925 325.203,296.230 325.960,297.000 326.400 C 297.770 326.840,299.030 327.560,299.800 328.000 C 301.344 328.882,303.375 330.035,304.845 330.862 C 307.987 332.631,309.473 335.214,309.026 338.130 C 308.388 342.297,303.571 344.530,299.812 342.400 C 298.485 341.648,297.427 341.045,294.300 339.257 C 293.585 338.848,292.190 338.042,291.200 337.466 C 290.210 336.891,287.958 335.597,286.195 334.592 C 282.145 332.282,281.200 330.991,281.201 327.775 C 281.203 322.763,285.742 320.280,290.444 322.718 M341.440 322.362 C 343.764 323.418,344.956 325.248,344.980 327.803 C 345.012 331.144,343.778 332.491,337.500 335.969 C 335.673 336.981,334.141 337.858,331.000 339.691 C 323.475 344.082,321.970 344.310,319.043 341.500 C 314.907 337.532,316.513 333.231,323.484 329.603 C 324.538 329.054,326.549 327.912,327.953 327.066 C 337.351 321.400,338.466 321.012,341.440 322.362 M318.576 349.651 C 330.902 351.942,341.227 359.757,339.474 365.469 C 337.898 370.606,332.830 371.519,328.105 367.516 C 319.001 359.802,306.997 359.824,297.833 367.572 C 292.133 372.392,285.308 369.348,286.582 362.554 C 287.286 358.801,297.032 351.953,303.800 350.456 C 304.900 350.213,306.520 349.849,307.400 349.648 C 309.698 349.123,315.745 349.124,318.576 349.651 " stroke="none" fill="#fc87c9" fill-rule="evenodd"></path><path id="path1" d="M292.400 0.466 C 294.307 1.286,295.010 1.546,297.015 2.175 C 302.514 3.901,310.304 10.251,313.239 15.400 C 316.856 21.747,318.008 26.019,317.986 33.000 C 317.961 40.579,315.524 47.585,311.129 52.711 C 309.843 54.210,308.400 56.884,308.400 57.765 C 308.400 58.093,307.500 59.262,306.400 60.362 C 302.961 63.801,303.930 69.064,308.326 70.828 C 308.835 71.033,312.014 71.200,315.390 71.200 L 321.528 71.200 323.477 72.740 C 327.453 75.883,331.357 81.637,332.881 86.600 C 334.249 91.059,334.471 92.524,334.483 97.200 C 334.505 106.231,331.122 114.211,324.702 120.272 C 322.483 122.366,322.281 122.448,317.863 123.012 C 311.866 123.779,310.406 131.211,315.569 134.690 C 316.887 135.579,317.160 135.600,327.399 135.600 L 337.880 135.600 339.452 136.739 C 346.516 141.856,350.899 151.293,350.907 161.400 C 350.916 173.725,343.028 187.200,335.804 187.200 C 329.759 187.200,326.368 192.937,329.774 197.402 C 331.584 199.775,331.626 199.783,343.832 200.000 L 355.063 200.200 356.445 201.400 C 372.437 215.291,371.100 241.248,353.800 252.763 C 349.906 255.354,343.874 258.000,341.859 258.000 C 341.497 258.000,341.200 258.180,341.200 258.400 C 341.200 259.020,372.499 258.941,373.120 258.320 C 373.493 257.947,373.600 257.953,373.600 258.347 C 373.600 258.691,373.890 258.762,374.500 258.568 C 374.995 258.411,375.670 258.246,376.000 258.203 C 377.632 257.988,379.200 257.460,379.200 257.126 C 379.200 256.921,379.342 256.841,379.516 256.948 C 379.869 257.166,382.465 256.027,382.840 255.490 C 382.972 255.301,383.332 255.105,383.640 255.054 C 384.533 254.906,386.171 253.932,386.520 253.342 C 386.696 253.044,387.101 252.800,387.420 252.800 C 387.739 252.800,388.000 252.620,388.000 252.400 C 388.000 252.180,388.193 252.000,388.429 252.000 C 388.928 252.000,390.218 250.803,389.729 250.794 C 389.548 250.791,389.850 250.561,390.400 250.284 C 390.950 250.007,391.458 249.377,391.529 248.884 C 391.599 248.391,391.824 248.091,392.029 248.218 C 392.233 248.344,392.400 248.246,392.400 248.000 C 392.400 247.754,392.580 247.664,392.800 247.800 C 393.020 247.936,393.200 247.767,393.200 247.424 C 393.200 247.081,393.336 246.800,393.502 246.800 C 393.669 246.800,394.060 246.215,394.372 245.500 C 394.684 244.785,395.268 243.909,395.670 243.553 C 396.071 243.197,396.400 242.723,396.400 242.499 C 396.400 241.780,397.469 240.003,397.739 240.273 C 397.883 240.416,398.000 240.154,398.000 239.690 C 398.000 239.227,398.180 238.736,398.400 238.600 C 398.620 238.464,398.800 237.633,398.800 236.753 C 398.800 235.873,398.961 235.252,399.158 235.374 C 400.146 235.984,400.064 217.131,399.075 216.141 C 398.924 215.990,398.800 215.554,398.800 215.171 C 398.800 214.405,397.177 211.079,396.700 210.867 C 396.535 210.793,396.400 210.388,396.400 209.967 C 396.400 209.545,396.220 209.200,396.000 209.200 C 395.780 209.200,395.600 208.916,395.600 208.569 C 395.600 208.221,394.865 207.231,393.967 206.369 C 393.069 205.506,392.484 204.795,392.667 204.788 C 392.850 204.781,392.685 204.592,392.300 204.368 C 391.915 204.144,391.600 203.699,391.600 203.380 C 391.600 203.061,391.319 202.800,390.976 202.800 C 390.633 202.800,390.447 202.647,390.562 202.461 C 390.745 202.165,388.219 199.600,387.745 199.600 C 387.647 199.600,387.180 199.240,386.708 198.800 C 386.236 198.360,385.613 198.000,385.325 198.000 C 385.036 198.000,384.800 197.820,384.800 197.600 C 384.800 197.380,384.530 197.200,384.200 197.200 C 383.870 197.200,383.600 197.040,383.600 196.843 C 383.600 196.537,382.029 195.943,381.388 196.007 C 381.269 196.019,380.895 195.752,380.557 195.414 C 380.219 195.076,379.416 194.800,378.771 194.800 C 378.127 194.800,377.600 194.621,377.600 194.403 C 377.600 194.184,377.195 194.067,376.700 194.142 C 376.205 194.218,375.615 194.027,375.390 193.718 C 374.806 192.919,373.600 193.503,373.600 194.584 C 373.600 195.922,371.997 198.029,370.321 198.894 C 368.904 199.625,368.076 199.645,350.559 199.367 L 332.276 199.076 330.738 197.538 C 327.718 194.518,328.984 189.381,333.079 188.046 C 334.223 187.673,339.175 187.581,353.067 187.675 C 363.224 187.744,371.508 187.710,371.477 187.600 C 371.445 187.490,372.803 186.028,374.495 184.352 C 376.186 182.675,377.457 181.190,377.319 181.052 C 377.180 180.913,377.367 180.800,377.733 180.800 C 378.100 180.800,378.400 180.532,378.400 180.205 C 378.400 179.877,378.703 179.256,379.072 178.824 C 379.442 178.392,379.805 177.643,379.879 177.161 C 379.953 176.678,380.370 175.973,380.806 175.594 C 381.288 175.176,381.600 174.405,381.600 173.629 C 381.600 172.927,381.760 172.452,381.955 172.572 C 382.295 172.782,382.567 171.858,383.066 168.800 C 383.192 168.030,383.434 167.220,383.604 167.000 C 383.998 166.489,384.048 156.400,383.657 156.400 C 383.495 156.400,383.318 155.730,383.263 154.912 C 383.208 154.094,382.976 153.309,382.747 153.167 C 382.519 153.026,382.347 152.796,382.366 152.655 C 382.546 151.311,382.326 149.598,382.000 149.800 C 381.773 149.940,381.600 149.604,381.600 149.024 C 381.600 148.461,381.465 147.999,381.300 147.997 C 380.941 147.993,380.000 146.056,380.000 145.320 C 380.000 145.034,379.820 144.800,379.600 144.800 C 379.380 144.800,379.200 144.552,379.200 144.249 C 379.200 143.946,378.926 143.470,378.590 143.192 C 378.255 142.914,378.076 142.590,378.194 142.473 C 378.311 142.356,377.910 141.933,377.303 141.533 C 376.696 141.133,376.354 140.804,376.542 140.803 C 376.731 140.801,376.332 140.284,375.656 139.653 C 374.981 139.022,374.542 138.392,374.681 138.253 C 374.820 138.114,374.692 138.000,374.397 138.000 C 374.102 138.000,373.007 137.100,371.963 136.000 C 370.919 134.900,369.871 134.000,369.633 134.000 C 369.395 134.000,369.200 133.820,369.200 133.600 C 369.200 133.380,368.840 133.200,368.400 133.200 C 367.960 133.200,367.600 133.052,367.600 132.871 C 367.600 132.458,363.976 130.800,363.072 130.800 C 362.702 130.800,362.400 130.626,362.400 130.413 C 362.400 130.199,362.170 130.113,361.889 130.221 C 361.608 130.329,360.663 130.069,359.789 129.644 C 358.109 128.826,357.201 129.073,357.199 130.349 C 357.196 131.441,355.681 133.562,354.304 134.402 C 352.176 135.699,318.278 135.632,315.954 134.326 C 312.141 132.183,311.874 127.262,315.426 124.553 L 316.937 123.400 335.669 123.300 C 353.909 123.202,354.422 123.178,355.215 122.385 C 355.663 121.937,356.177 121.662,356.358 121.774 C 356.689 121.978,358.197 120.415,359.063 118.972 C 359.317 118.547,359.736 118.249,359.993 118.310 C 360.249 118.370,360.345 118.235,360.206 118.010 C 360.067 117.784,360.173 117.600,360.443 117.600 C 360.713 117.600,360.827 117.494,360.697 117.364 C 360.568 117.234,360.988 116.578,361.631 115.905 C 362.274 115.232,362.800 114.438,362.800 114.141 C 362.800 113.843,362.980 113.600,363.200 113.600 C 363.420 113.600,363.600 113.313,363.600 112.962 C 363.600 112.611,364.140 111.340,364.800 110.137 C 365.460 108.935,366.000 107.512,366.000 106.975 C 366.000 106.439,366.180 106.000,366.400 106.000 C 366.620 106.000,366.800 105.809,366.800 105.576 C 366.800 105.343,366.575 105.280,366.300 105.435 C 365.900 105.661,365.900 105.610,366.300 105.179 C 366.575 104.882,366.800 104.147,366.800 103.544 C 366.800 102.941,366.966 102.345,367.168 102.220 C 367.371 102.094,367.532 100.465,367.527 98.598 C 367.521 96.152,367.390 95.280,367.059 95.478 C 366.715 95.685,366.714 95.609,367.056 95.177 C 367.573 94.522,367.667 92.303,367.190 92.000 C 367.017 91.890,366.822 90.990,366.757 90.000 C 366.692 89.010,366.496 88.100,366.322 87.978 C 366.147 87.855,365.964 87.270,365.915 86.678 C 365.866 86.085,365.685 85.600,365.513 85.600 C 365.341 85.600,365.200 85.221,365.200 84.758 C 365.200 84.295,364.660 83.116,364.000 82.138 C 363.340 81.160,362.800 80.088,362.800 79.756 C 362.800 79.424,362.620 79.264,362.400 79.400 C 362.180 79.536,362.000 79.447,362.000 79.202 C 362.000 78.435,360.145 75.989,359.800 76.302 C 359.620 76.466,359.587 76.398,359.728 76.152 C 359.868 75.905,359.627 75.292,359.192 74.790 C 358.675 74.195,358.398 74.073,358.394 74.439 C 358.389 74.907,358.327 74.903,358.020 74.419 C 357.818 74.100,357.742 73.695,357.850 73.519 C 357.958 73.344,357.858 73.200,357.627 73.200 C 357.396 73.200,356.636 72.615,355.938 71.900 C 355.239 71.185,354.812 70.870,354.987 71.200 C 355.162 71.530,354.752 71.215,354.076 70.500 C 353.399 69.785,352.565 69.200,352.223 69.200 C 351.880 69.200,351.600 69.020,351.600 68.800 C 351.600 68.580,351.330 68.400,351.000 68.400 C 350.670 68.400,350.400 68.220,350.400 68.000 C 350.400 67.780,350.040 67.600,349.600 67.600 C 349.160 67.600,348.800 67.409,348.800 67.176 C 348.800 66.943,348.635 66.855,348.432 66.980 C 348.230 67.105,347.781 66.924,347.435 66.578 C 347.089 66.232,346.657 66.041,346.474 66.154 C 346.292 66.267,345.695 66.127,345.148 65.843 C 342.886 64.670,340.922 64.696,340.665 65.903 C 340.279 67.712,338.983 69.422,337.446 70.152 C 334.886 71.366,309.093 70.951,307.291 69.667 C 303.778 67.161,304.179 61.796,308.041 59.625 C 309.552 58.776,309.916 58.756,323.494 58.801 C 340.165 58.857,338.903 58.890,338.600 58.400 C 338.464 58.180,338.607 58.000,338.917 58.000 C 339.808 58.000,343.200 54.459,343.200 53.529 C 343.200 53.275,343.317 53.183,343.459 53.326 C 343.773 53.639,345.255 52.013,345.013 51.621 C 344.919 51.470,345.193 51.093,345.621 50.785 C 346.050 50.476,346.400 49.903,346.400 49.512 C 346.400 49.120,346.580 48.800,346.800 48.800 C 347.020 48.800,347.200 48.440,347.200 48.000 C 347.200 47.560,347.358 47.200,347.551 47.200 C 347.745 47.200,348.120 46.615,348.385 45.900 C 348.650 45.185,349.045 44.266,349.263 43.858 C 349.527 43.363,349.525 43.199,349.257 43.365 C 349.036 43.502,349.147 43.027,349.505 42.310 C 349.862 41.593,350.219 40.383,350.297 39.621 C 350.375 38.858,350.589 38.047,350.773 37.817 C 351.317 37.137,351.262 32.359,350.703 31.668 C 350.305 31.176,350.304 31.109,350.700 31.347 C 351.060 31.563,351.198 31.277,351.194 30.324 C 351.189 29.322,351.093 29.146,350.800 29.600 C 350.465 30.119,350.411 30.110,350.406 29.533 C 350.403 29.167,350.625 28.775,350.900 28.664 C 351.296 28.503,351.294 28.386,350.887 28.099 C 350.604 27.899,350.357 26.899,350.336 25.876 C 350.316 24.853,350.142 24.112,349.949 24.231 C 349.757 24.350,349.600 23.886,349.600 23.200 C 349.600 22.309,349.457 22.039,349.100 22.253 C 348.725 22.478,348.730 22.393,349.119 21.912 C 349.469 21.481,349.501 21.186,349.219 21.012 C 348.989 20.869,348.800 20.393,348.800 19.953 C 348.800 19.513,348.620 19.264,348.400 19.400 C 348.172 19.541,348.000 19.196,348.000 18.600 C 348.000 18.024,347.856 17.642,347.680 17.751 C 347.504 17.859,347.131 17.581,346.851 17.132 C 346.432 16.462,346.435 16.370,346.870 16.617 C 347.296 16.859,347.302 16.812,346.900 16.379 C 346.625 16.082,346.400 15.588,346.400 15.280 C 346.400 14.973,345.851 14.208,345.180 13.582 C 344.509 12.955,343.951 12.298,343.940 12.121 C 343.929 11.944,343.758 11.845,343.560 11.900 C 343.362 11.955,343.200 11.717,343.200 11.371 C 343.200 11.026,342.930 10.473,342.600 10.143 C 342.270 9.813,342.000 9.668,342.000 9.821 C 342.000 9.974,341.301 9.357,340.447 8.449 C 339.592 7.542,338.692 6.800,338.447 6.800 C 338.201 6.800,338.000 6.620,338.000 6.400 C 338.000 6.180,337.742 6.000,337.427 6.000 C 337.112 6.000,336.740 5.640,336.600 5.200 C 336.436 4.682,335.995 4.400,335.349 4.400 C 334.787 4.400,334.460 4.226,334.600 4.000 C 334.840 3.611,334.317 3.438,333.300 3.570 C 333.025 3.606,332.800 3.447,332.800 3.218 C 332.800 2.988,332.530 2.800,332.200 2.800 C 331.870 2.800,331.600 2.620,331.600 2.400 C 331.600 2.180,331.137 2.000,330.571 2.000 C 330.006 2.000,329.263 1.720,328.920 1.377 C 328.577 1.034,328.041 0.852,327.728 0.972 C 327.415 1.093,327.256 1.032,327.376 0.839 C 327.761 0.215,324.911 0.102,308.000 0.069 C 295.839 0.045,291.667 0.151,292.400 0.466 M96.931 44.600 C 96.933 46.140,97.005 46.721,97.092 45.891 C 97.179 45.061,97.177 43.801,97.089 43.091 C 97.000 42.381,96.929 43.060,96.931 44.600 M47.905 66.683 C 48.402 66.779,49.122 66.775,49.505 66.675 C 49.887 66.575,49.480 66.496,48.600 66.501 C 47.720 66.505,47.407 66.587,47.905 66.683 M96.880 219.467 C 96.836 221.044,96.684 222.664,96.541 223.067 C 96.346 223.620,96.400 223.692,96.759 223.362 C 97.075 223.072,97.190 221.860,97.098 219.762 L 96.961 216.600 96.880 219.467 M96.101 225.800 C 96.105 226.680,96.187 226.993,96.283 226.495 C 96.379 225.998,96.375 225.278,96.275 224.895 C 96.175 224.513,96.096 224.920,96.101 225.800 M195.309 258.724 C 194.925 258.968,194.794 272.063,194.709 318.618 C 194.600 378.159,194.599 378.202,193.755 380.402 C 191.466 386.370,189.154 389.628,184.374 393.622 C 181.831 395.746,181.582 396.070,182.338 396.268 C 182.812 396.392,183.200 396.652,183.200 396.847 C 183.200 397.041,183.434 397.200,183.720 397.200 C 184.456 397.200,186.393 398.141,186.397 398.500 C 186.399 398.665,186.745 398.800,187.167 398.800 C 187.588 398.800,188.006 399.018,188.095 399.285 C 188.215 399.644,190.478 399.774,196.828 399.785 C 205.607 399.800,207.689 399.668,207.348 399.115 C 207.240 398.942,207.703 398.800,208.376 398.800 C 209.049 398.800,209.600 398.620,209.600 398.400 C 209.600 398.180,209.932 398.000,210.339 398.000 C 211.321 398.000,213.600 396.845,213.600 396.347 C 213.600 396.130,213.760 396.051,213.955 396.172 C 214.150 396.293,214.530 396.125,214.800 395.800 C 215.070 395.475,215.417 395.287,215.572 395.383 C 215.727 395.479,216.107 395.207,216.415 394.779 C 216.724 394.350,217.297 394.000,217.688 394.000 C 218.080 394.000,218.400 393.773,218.400 393.496 C 218.400 393.219,218.767 392.763,219.216 392.483 C 219.669 392.200,219.906 391.772,219.750 391.519 C 219.571 391.229,219.687 391.148,220.070 391.295 C 220.463 391.446,220.926 391.088,221.406 390.263 C 221.809 389.568,222.706 388.280,223.399 387.400 C 224.122 386.481,224.586 385.482,224.490 385.053 C 224.385 384.584,224.487 384.406,224.762 384.576 C 225.025 384.739,225.200 384.519,225.200 384.024 C 225.200 383.571,225.380 383.200,225.600 383.200 C 225.820 383.200,226.000 382.660,226.000 382.000 C 226.000 381.340,226.160 380.800,226.356 380.800 C 227.465 380.800,228.207 259.433,227.103 258.731 C 226.453 258.319,195.957 258.312,195.309 258.724 M286.500 321.876 C 286.885 321.976,287.515 321.976,287.900 321.876 C 288.285 321.775,287.970 321.693,287.200 321.693 C 286.430 321.693,286.115 321.775,286.500 321.876 M338.100 321.876 C 338.485 321.976,339.115 321.976,339.500 321.876 C 339.885 321.775,339.570 321.693,338.800 321.693 C 338.030 321.693,337.715 321.775,338.100 321.876 " stroke="none" fill="#fcd3c4" fill-rule="evenodd"></path><path id="path2" d="M170.758 0.176 C 170.661 0.272,169.453 0.392,168.074 0.442 C 166.694 0.492,165.472 0.683,165.359 0.866 C 165.246 1.050,164.364 1.200,163.400 1.200 C 162.436 1.200,161.536 1.380,161.400 1.600 C 161.264 1.820,160.353 2.000,159.376 2.000 C 158.399 2.000,157.600 2.180,157.600 2.400 C 157.600 2.620,157.276 2.800,156.880 2.800 C 156.484 2.800,155.918 3.025,155.621 3.300 C 155.274 3.623,155.175 3.634,155.344 3.334 C 155.612 2.857,153.886 3.265,152.305 4.054 C 151.923 4.244,151.248 4.400,150.805 4.400 C 150.362 4.400,150.000 4.580,150.000 4.800 C 150.000 5.020,149.685 5.203,149.300 5.206 C 148.482 5.213,145.739 6.127,145.341 6.526 C 145.190 6.677,144.737 6.800,144.333 6.800 C 143.930 6.800,143.600 6.980,143.600 7.200 C 143.600 7.420,143.137 7.600,142.571 7.600 C 142.006 7.600,141.271 7.872,140.939 8.204 C 140.607 8.536,140.170 8.705,139.968 8.580 C 139.765 8.455,139.599 8.498,139.597 8.676 C 139.593 9.040,137.692 10.000,136.974 10.000 C 136.718 10.000,136.034 10.373,135.454 10.829 C 134.874 11.285,134.397 11.510,134.394 11.329 C 134.391 11.148,134.237 11.237,134.054 11.527 C 133.870 11.816,133.468 12.104,133.160 12.165 C 131.948 12.407,129.150 14.049,127.317 15.593 C 127.051 15.817,126.622 16.000,126.364 16.000 C 126.105 16.000,125.591 16.349,125.222 16.775 C 124.852 17.201,124.299 17.606,123.993 17.675 C 123.687 17.744,123.015 18.205,122.500 18.700 C 121.985 19.195,121.415 19.600,121.232 19.600 C 121.050 19.600,120.113 20.321,119.151 21.203 C 118.188 22.085,117.082 22.908,116.694 23.032 C 116.306 23.156,116.092 23.425,116.218 23.629 C 116.344 23.833,116.263 24.000,116.037 24.000 C 115.596 24.000,113.910 25.416,110.562 28.600 C 107.253 31.747,101.917 36.672,100.600 37.795 C 99.940 38.358,98.905 39.309,98.300 39.909 L 97.201 41.000 97.200 132.076 C 97.200 192.362,97.065 223.236,96.800 223.400 C 96.580 223.536,96.400 224.411,96.400 225.344 C 96.400 226.277,96.231 227.211,96.025 227.420 C 95.791 227.657,96.393 229.341,97.625 231.901 C 98.711 234.156,99.604 236.136,99.609 236.301 C 99.614 236.465,99.970 237.050,100.400 237.600 C 100.830 238.150,101.186 238.915,101.191 239.300 C 101.196 239.685,101.380 240.000,101.600 240.000 C 101.820 240.000,102.000 240.270,102.000 240.600 C 102.000 240.930,102.180 241.200,102.400 241.200 C 102.620 241.200,102.800 241.560,102.800 242.000 C 102.800 242.440,102.980 242.800,103.200 242.800 C 103.420 242.800,103.600 243.250,103.600 243.800 C 103.600 244.350,103.780 244.800,104.000 244.800 C 104.220 244.800,104.400 245.160,104.400 245.600 C 104.400 246.040,104.580 246.400,104.800 246.400 C 105.020 246.400,105.200 246.683,105.200 247.029 C 105.200 247.374,105.479 247.936,105.820 248.277 C 106.160 248.618,106.543 249.415,106.670 250.048 C 106.796 250.682,107.058 251.200,107.250 251.200 C 107.442 251.200,107.600 251.560,107.600 252.000 C 107.600 252.440,107.736 252.800,107.902 252.800 C 108.069 252.800,108.420 253.295,108.683 253.900 C 109.561 255.921,110.122 257.395,110.239 257.989 C 110.303 258.313,110.670 258.808,111.054 259.089 C 111.438 259.370,111.624 259.600,111.466 259.600 C 111.308 259.600,111.492 260.185,111.873 260.900 C 112.254 261.615,112.574 262.326,112.583 262.480 C 112.592 262.634,112.825 262.985,113.100 263.260 C 113.375 263.535,113.600 264.023,113.600 264.345 C 113.600 264.667,114.044 265.687,114.586 266.612 C 115.128 267.538,115.458 268.408,115.319 268.547 C 115.180 268.686,115.255 268.800,115.485 268.800 C 115.715 268.800,116.120 269.385,116.385 270.100 C 116.650 270.815,117.063 271.760,117.303 272.200 C 119.145 275.574,120.000 277.362,120.000 277.841 C 120.000 278.148,120.180 278.400,120.400 278.400 C 120.620 278.400,120.800 278.670,120.800 279.000 C 120.800 279.330,120.980 279.600,121.200 279.600 C 121.420 279.600,121.600 280.050,121.600 280.600 C 121.600 281.150,121.780 281.600,122.000 281.600 C 122.220 281.600,122.400 281.960,122.400 282.400 C 122.400 282.840,122.580 283.200,122.800 283.200 C 123.020 283.200,123.200 283.560,123.200 284.000 C 123.200 284.440,123.336 284.800,123.502 284.800 C 123.669 284.800,124.046 285.385,124.341 286.100 C 125.001 287.702,129.034 296.195,129.849 297.700 C 130.177 298.305,130.333 298.800,130.195 298.800 C 130.058 298.800,130.286 299.295,130.703 299.900 C 131.119 300.505,131.707 301.630,132.007 302.400 C 132.308 303.170,132.665 303.890,132.800 304.000 C 132.935 304.110,133.295 304.830,133.600 305.600 C 133.905 306.370,134.255 307.090,134.377 307.200 C 134.849 307.624,135.600 309.217,135.600 309.795 C 135.600 310.128,135.780 310.400,136.000 310.400 C 136.220 310.400,136.400 310.760,136.400 311.200 C 136.400 311.640,136.536 312.000,136.702 312.000 C 137.051 312.000,138.223 314.451,138.089 314.900 C 138.040 315.065,138.180 315.200,138.400 315.200 C 138.620 315.200,138.800 315.560,138.800 316.000 C 138.800 316.440,138.980 316.800,139.200 316.800 C 139.420 316.800,139.600 317.034,139.600 317.320 C 139.600 318.056,140.541 319.993,140.900 319.997 C 141.065 319.999,141.200 320.461,141.200 321.024 C 141.200 321.604,141.373 321.940,141.600 321.800 C 141.820 321.664,142.000 321.923,142.000 322.376 C 142.000 322.829,142.180 323.200,142.400 323.200 C 142.620 323.200,142.800 323.622,142.800 324.139 C 142.800 324.655,143.160 325.493,143.600 326.000 C 144.040 326.507,144.400 327.255,144.400 327.661 C 144.400 328.068,144.580 328.400,144.800 328.400 C 145.020 328.400,145.167 328.535,145.127 328.700 C 145.030 329.097,146.901 332.928,147.351 333.255 C 147.544 333.396,147.596 333.683,147.465 333.895 C 147.335 334.106,147.581 334.659,148.014 335.123 C 148.446 335.587,148.800 336.233,148.800 336.560 C 148.800 336.886,148.980 337.264,149.200 337.400 C 149.420 337.536,149.600 337.997,149.600 338.424 C 149.600 338.851,149.780 339.200,150.000 339.200 C 150.220 339.200,150.400 339.560,150.400 340.000 C 150.400 340.440,150.580 340.800,150.800 340.800 C 151.020 340.800,151.200 341.160,151.200 341.600 C 151.200 342.040,151.380 342.400,151.600 342.400 C 151.820 342.400,152.000 342.760,152.000 343.200 C 152.000 343.640,152.144 344.000,152.320 344.000 C 152.495 344.000,152.881 344.675,153.176 345.500 C 153.471 346.325,153.822 347.090,153.956 347.200 C 154.429 347.588,155.200 349.197,155.200 349.795 C 155.200 350.128,155.380 350.400,155.600 350.400 C 155.820 350.400,156.000 350.634,156.000 350.920 C 156.000 351.656,156.941 353.593,157.300 353.597 C 157.465 353.599,157.604 353.915,157.609 354.300 C 157.614 354.685,157.970 355.450,158.400 356.000 C 158.830 356.550,159.186 357.304,159.191 357.676 C 159.196 358.048,159.366 358.455,159.569 358.581 C 159.772 358.706,160.057 359.347,160.201 360.005 C 160.345 360.662,160.640 361.200,160.855 361.200 C 161.071 361.200,161.136 361.380,161.000 361.600 C 160.864 361.820,160.954 362.000,161.200 362.000 C 161.446 362.000,161.529 362.191,161.384 362.425 C 161.240 362.659,161.437 363.199,161.823 363.625 C 162.208 364.051,162.411 364.400,162.272 364.400 C 162.134 364.400,162.513 365.255,163.115 366.300 C 163.716 367.345,164.406 368.650,164.647 369.200 C 165.139 370.320,166.437 372.981,167.086 374.200 C 167.321 374.640,167.937 375.900,168.456 377.000 C 168.975 378.100,169.535 379.060,169.700 379.133 C 169.865 379.207,170.000 379.612,170.000 380.033 C 170.000 380.455,170.180 380.800,170.400 380.800 C 170.620 380.800,170.800 381.250,170.800 381.800 C 170.800 382.350,170.935 382.801,171.100 382.803 C 171.465 382.807,172.400 384.749,172.400 385.503 C 172.400 385.802,172.580 385.936,172.800 385.800 C 173.020 385.664,173.200 385.833,173.200 386.176 C 173.200 386.519,173.380 386.800,173.600 386.800 C 173.820 386.800,174.000 387.078,174.000 387.417 C 174.000 387.756,174.360 388.420,174.800 388.892 C 175.240 389.364,175.600 389.956,175.600 390.208 C 175.600 390.459,176.044 390.902,176.586 391.193 C 177.129 391.483,177.495 391.846,177.400 392.000 C 177.208 392.311,179.015 394.000,179.541 394.000 C 179.725 394.000,180.202 394.360,180.600 394.800 C 181.611 395.917,181.738 395.872,184.697 393.362 C 189.222 389.523,191.514 386.244,193.755 380.402 C 194.599 378.202,194.600 378.159,194.709 318.618 C 194.785 277.195,194.947 258.956,195.242 258.774 C 195.475 258.630,228.411 258.603,268.433 258.714 C 322.938 258.865,341.200 258.801,341.200 258.458 C 341.200 258.206,341.497 258.000,341.859 258.000 C 343.874 258.000,349.906 255.354,353.800 252.763 C 371.100 241.248,372.437 215.291,356.445 201.400 L 355.063 200.200 343.832 200.000 C 331.626 199.783,331.584 199.775,329.774 197.402 C 326.368 192.937,329.759 187.200,335.804 187.200 C 338.852 187.200,340.879 185.674,344.834 180.404 C 352.704 169.917,353.168 154.844,345.956 144.000 C 344.005 141.067,341.379 138.134,339.452 136.739 L 337.880 135.600 327.399 135.600 C 317.160 135.600,316.887 135.579,315.569 134.690 C 310.406 131.211,311.866 123.779,317.863 123.012 C 322.281 122.448,322.483 122.366,324.702 120.272 C 334.577 110.949,337.342 96.212,331.619 83.400 C 329.888 79.526,326.577 75.191,323.477 72.740 L 321.528 71.200 315.390 71.200 C 308.047 71.200,306.593 70.715,304.900 67.701 C 303.639 65.456,304.239 62.523,306.400 60.362 C 307.500 59.262,308.400 58.093,308.400 57.765 C 308.400 56.884,309.843 54.210,311.129 52.711 C 315.524 47.585,317.961 40.579,317.986 33.000 C 318.004 27.216,317.327 23.938,315.050 18.800 C 311.910 11.716,303.908 4.339,297.015 2.175 C 295.907 1.828,294.640 1.398,294.200 1.221 C 293.760 1.044,292.897 0.697,292.281 0.450 C 291.194 0.013,171.191 -0.258,170.758 0.176 M44.315 33.128 C 43.938 33.278,45.776 33.400,48.400 33.400 C 51.024 33.400,52.862 33.278,52.485 33.128 C 52.108 32.979,50.270 32.856,48.400 32.856 C 46.530 32.856,44.692 32.979,44.315 33.128 M40.849 34.488 C 36.928 36.388,31.958 42.559,32.014 45.457 C 32.022 45.866,32.364 45.269,32.774 44.132 C 34.245 40.045,37.157 36.850,41.400 34.666 C 43.801 33.431,43.339 33.282,40.849 34.488 M55.800 34.824 C 58.577 36.228,61.715 39.124,62.860 41.339 C 63.298 42.185,63.763 42.770,63.894 42.639 C 65.083 41.451,56.394 33.581,53.920 33.605 C 53.634 33.608,54.480 34.156,55.800 34.824 M64.012 43.600 C 64.012 43.930,64.187 44.470,64.400 44.800 C 64.745 45.333,64.788 45.333,64.788 44.800 C 64.788 44.470,64.613 43.930,64.400 43.600 C 64.055 43.067,64.012 43.067,64.012 43.600 M64.938 49.600 C 64.944 51.808,65.068 52.981,65.234 52.400 C 65.606 51.101,65.601 48.073,65.225 46.800 C 65.049 46.206,64.933 47.341,64.938 49.600 M31.434 48.126 C 31.085 50.147,31.753 54.642,32.516 55.400 C 32.785 55.668,32.814 55.536,32.604 55.000 C 32.431 54.560,32.172 52.400,32.028 50.200 C 31.780 46.419,31.748 46.306,31.434 48.126 M64.432 54.340 C 64.305 56.495,60.674 61.484,57.967 63.221 C 55.734 64.654,55.373 65.145,57.275 64.161 C 60.330 62.582,65.321 55.937,64.670 54.317 C 64.507 53.909,64.456 53.914,64.432 54.340 M32.818 56.254 C 32.728 58.560,40.359 65.639,42.880 65.590 C 43.166 65.584,42.291 65.041,40.935 64.384 C 38.316 63.113,34.991 59.879,33.602 57.250 C 33.180 56.453,32.827 56.004,32.818 56.254 M44.000 66.000 C 44.330 66.213,45.050 66.378,45.600 66.366 C 46.516 66.346,46.533 66.315,45.800 66.000 C 44.616 65.491,43.213 65.491,44.000 66.000 M51.200 66.000 L 50.200 66.320 51.200 66.332 C 51.750 66.338,52.560 66.189,53.000 66.000 L 53.800 65.656 53.000 65.668 C 52.560 65.674,51.750 65.824,51.200 66.000 M355.377 122.167 C 354.950 122.479,354.736 122.869,354.901 123.034 C 355.065 123.199,355.200 123.123,355.200 122.867 C 355.200 122.610,355.470 122.400,355.800 122.400 C 356.130 122.400,356.400 122.220,356.400 122.000 C 356.400 121.476,356.300 121.493,355.377 122.167 M392.667 204.667 C 392.541 204.792,392.708 205.165,393.038 205.495 C 393.368 205.825,393.741 205.992,393.867 205.867 C 393.992 205.741,393.825 205.368,393.495 205.038 C 393.165 204.708,392.792 204.541,392.667 204.667 M283.976 322.657 C 282.694 323.453,281.197 325.599,281.209 326.625 C 281.214 327.100,281.499 326.781,281.945 325.800 C 282.731 324.073,283.525 323.265,285.158 322.532 C 285.731 322.275,285.930 322.055,285.600 322.043 C 285.270 322.031,284.539 322.308,283.976 322.657 M341.072 322.622 C 343.194 323.552,344.400 325.520,344.400 328.053 C 344.400 331.036,343.392 332.097,337.200 335.628 C 334.450 337.196,331.390 338.942,330.400 339.508 C 325.231 342.465,324.516 342.786,323.095 342.793 C 321.537 342.800,320.514 342.373,318.803 341.000 L 317.806 340.200 318.602 341.141 C 321.094 344.086,323.616 343.948,329.400 340.553 C 330.940 339.649,333.010 338.458,334.000 337.906 C 342.737 333.031,344.177 331.915,344.823 329.514 C 345.667 326.382,343.019 321.904,340.400 322.035 C 340.070 322.052,340.372 322.316,341.072 322.622 M290.600 323.117 C 290.820 323.341,291.675 323.902,292.500 324.362 C 293.325 324.823,294.630 325.560,295.400 326.000 C 296.170 326.440,297.430 327.160,298.200 327.600 C 308.326 333.386,308.492 333.537,308.542 336.990 C 308.577 339.372,307.527 341.179,305.529 342.176 C 302.862 343.506,302.257 343.294,292.200 337.510 C 282.767 332.086,283.060 332.292,282.100 330.402 C 281.605 329.428,281.200 328.956,281.200 329.353 C 281.200 331.123,283.543 333.148,289.200 336.269 C 292.906 338.313,294.582 339.272,295.000 339.587 C 298.804 342.453,303.361 343.758,305.572 342.614 C 310.907 339.856,310.170 333.824,304.097 330.534 C 302.532 329.687,302.066 329.419,296.200 326.011 C 291.917 323.522,290.053 322.559,290.600 323.117 M334.200 323.534 C 333.540 323.936,332.190 324.720,331.200 325.276 C 330.210 325.832,328.770 326.649,328.000 327.092 C 327.230 327.535,324.980 328.827,323.000 329.963 C 319.414 332.020,317.199 334.015,317.201 335.185 C 317.202 335.523,317.587 335.170,318.056 334.400 C 319.161 332.587,320.928 331.423,331.639 325.449 C 334.022 324.120,335.930 322.855,335.600 322.822 C 335.490 322.812,334.860 323.132,334.200 323.534 M308.448 349.547 C 307.925 349.693,309.973 349.813,313.000 349.813 C 316.027 349.813,318.075 349.693,317.552 349.547 C 317.028 349.400,314.980 349.280,313.000 349.280 C 311.020 349.280,308.972 349.400,308.448 349.547 M304.200 350.400 L 303.400 350.744 304.200 350.744 C 304.640 350.744,305.360 350.589,305.800 350.400 L 306.600 350.056 305.800 350.056 C 305.360 350.056,304.640 350.211,304.200 350.400 M320.200 350.400 C 320.640 350.589,321.360 350.744,321.800 350.744 L 322.600 350.744 321.800 350.400 C 321.360 350.211,320.640 350.056,320.200 350.056 L 319.400 350.056 320.200 350.400 M301.600 351.200 C 301.067 351.545,301.067 351.588,301.600 351.588 C 301.930 351.588,302.470 351.413,302.800 351.200 C 303.333 350.855,303.333 350.812,302.800 350.812 C 302.470 350.812,301.930 350.987,301.600 351.200 M323.200 351.200 C 323.530 351.413,324.070 351.588,324.400 351.588 C 324.933 351.588,324.933 351.545,324.400 351.200 C 324.070 350.987,323.530 350.812,323.200 350.812 C 322.667 350.812,322.667 350.855,323.200 351.200 M297.861 352.646 C 295.099 354.083,295.773 354.223,298.626 352.805 C 299.932 352.156,300.730 351.628,300.400 351.631 C 300.070 351.635,298.927 352.091,297.861 352.646 M327.544 352.838 C 340.058 358.701,343.436 368.087,333.600 369.665 L 331.800 369.953 333.849 369.840 C 339.418 369.533,341.534 363.435,337.510 359.289 C 334.566 356.255,327.196 351.547,325.511 351.623 C 325.230 351.636,326.145 352.183,327.544 352.838 M293.474 355.234 C 291.262 356.699,287.492 360.025,287.750 360.284 C 287.850 360.384,288.712 359.705,289.666 358.775 C 290.620 357.846,292.345 356.456,293.500 355.686 C 295.374 354.437,295.885 354.000,295.469 354.000 C 295.396 354.000,294.499 354.555,293.474 355.234 M311.907 361.490 C 312.626 361.579,313.706 361.577,314.307 361.486 C 314.908 361.395,314.320 361.322,313.000 361.324 C 311.680 361.326,311.188 361.401,311.907 361.490 M307.200 362.012 C 306.781 362.291,307.142 362.333,308.400 362.150 C 310.641 361.825,310.960 361.598,309.167 361.606 C 308.415 361.609,307.530 361.792,307.200 362.012 M315.633 361.744 C 315.725 361.824,316.610 362.006,317.600 362.150 C 318.858 362.333,319.219 362.291,318.800 362.012 C 318.260 361.653,315.232 361.397,315.633 361.744 M286.501 363.800 C 286.505 364.680,286.587 364.993,286.683 364.495 C 286.779 363.998,286.775 363.278,286.675 362.895 C 286.575 362.513,286.496 362.920,286.501 363.800 M304.600 362.800 C 304.308 363.273,304.699 363.273,305.800 362.800 C 306.571 362.469,306.569 362.455,305.724 362.428 C 305.242 362.413,304.736 362.580,304.600 362.800 M300.952 364.733 C 299.648 365.576,297.955 366.807,297.190 367.470 C 296.426 368.132,295.440 368.876,295.000 369.125 C 294.356 369.488,294.328 369.578,294.857 369.588 C 295.218 369.595,296.421 368.784,297.530 367.787 C 298.639 366.790,300.583 365.350,301.850 364.587 C 303.117 363.824,303.966 363.200,303.738 363.200 C 303.511 363.200,302.257 363.890,300.952 364.733 M322.033 363.329 C 322.970 364.053,326.000 365.556,326.000 365.297 C 326.000 365.111,325.185 364.564,324.189 364.080 C 322.613 363.314,321.523 362.934,322.033 363.329 M286.801 366.087 C 286.797 368.004,290.783 370.355,293.248 369.889 C 293.860 369.773,293.630 369.689,292.600 369.653 C 290.619 369.584,288.644 368.419,287.598 366.704 C 287.085 365.862,286.802 365.644,286.801 366.087 M326.400 365.751 C 326.400 366.122,330.863 369.600,331.337 369.599 C 331.592 369.598,331.235 369.252,330.544 368.831 C 329.853 368.410,329.172 367.879,329.032 367.651 C 328.716 367.140,326.400 365.468,326.400 365.751 " stroke="none" fill="#fcdcd4" fill-rule="evenodd"></path><path id="path3" d="M44.200 33.551 C 32.279 36.720,27.974 51.725,36.358 60.882 C 40.839 65.776,49.208 67.801,54.095 65.173 C 54.477 64.968,54.981 64.800,55.217 64.800 C 56.179 64.800,60.296 61.555,61.633 59.743 C 70.943 47.123,59.247 29.552,44.200 33.551 M284.941 322.598 C 280.277 324.712,280.309 330.602,285.000 333.349 C 289.622 336.055,297.552 340.583,299.541 341.650 C 307.601 345.979,312.544 335.990,304.646 331.333 C 302.314 329.958,301.385 329.420,298.200 327.600 C 297.430 327.160,296.170 326.440,295.400 326.000 C 294.630 325.560,293.325 324.811,292.500 324.335 C 288.537 322.048,286.956 321.685,284.941 322.598 M337.400 322.400 C 337.264 322.620,336.876 322.800,336.538 322.800 C 336.200 322.800,335.446 323.133,334.862 323.539 C 334.278 323.945,332.810 324.823,331.600 325.490 C 327.911 327.522,320.634 331.764,319.746 332.400 C 315.201 335.658,317.509 342.820,323.095 342.793 C 324.516 342.786,325.231 342.465,330.400 339.508 C 331.390 338.942,334.450 337.196,337.200 335.628 C 344.596 331.410,346.294 328.359,343.376 324.533 C 341.884 322.577,338.121 321.234,337.400 322.400 M309.000 349.845 C 298.995 350.864,286.796 358.584,286.801 363.895 C 286.804 366.911,289.537 369.598,292.600 369.596 C 294.300 369.596,294.821 369.317,298.843 366.252 C 306.162 360.677,314.602 359.762,323.067 363.625 C 325.529 364.749,326.053 365.100,328.763 367.442 C 335.765 373.494,343.385 365.022,336.554 358.780 C 330.596 353.336,322.932 350.201,314.739 349.856 C 312.462 349.761,309.880 349.756,309.000 349.845 " stroke="none" fill="#fcfafb" fill-rule="evenodd"></path><path id="path4" d="M96.996 132.000 C 96.996 178.750,97.043 197.875,97.100 174.500 C 97.157 151.125,97.157 112.875,97.100 89.500 C 97.043 66.125,96.996 85.250,96.996 132.000 M307.943 59.651 C 304.168 61.872,303.821 67.192,307.291 69.667 C 309.093 70.951,334.886 71.366,337.446 70.152 C 338.984 69.421,340.279 67.711,340.666 65.900 C 340.794 65.295,341.053 64.800,341.240 64.800 C 342.443 64.800,339.730 59.443,338.339 59.072 C 335.593 58.339,309.322 58.839,307.943 59.651 M319.008 123.490 C 312.624 123.906,310.544 131.286,315.954 134.326 C 317.488 135.188,317.750 135.200,335.295 135.200 L 353.082 135.200 354.441 134.288 C 355.188 133.786,356.144 132.661,356.565 131.788 C 356.986 130.914,357.545 129.775,357.807 129.255 C 358.357 128.163,357.429 125.793,355.823 124.187 L 354.916 123.280 338.158 123.307 C 328.941 123.322,320.324 123.404,319.008 123.490 M332.553 188.203 C 328.824 189.867,327.887 194.687,330.738 197.538 L 332.276 199.076 350.559 199.367 C 368.076 199.645,368.904 199.625,370.321 198.894 C 371.946 198.055,373.600 195.932,373.600 194.685 C 373.600 194.247,373.877 193.685,374.217 193.437 C 375.013 192.855,373.649 189.292,372.282 188.385 C 370.995 187.531,334.433 187.363,332.553 188.203 " stroke="none" fill="#fcbbae" fill-rule="evenodd"></path></g></svg>