<svg id="svg" version="1.1" xmlns="http://www.w3.org/2000/svg" xmlns:xlink="http://www.w3.org/1999/xlink" width="400" height="400" viewBox="0, 0, 400,400"><g id="svgg"><path id="path0" d="M304.900 0.272 C 303.745 0.365,302.800 0.612,302.800 0.821 C 302.800 1.029,302.181 1.200,301.424 1.200 C 300.667 1.200,299.936 1.380,299.800 1.600 C 299.664 1.820,299.023 2.000,298.376 2.000 C 297.729 2.000,297.200 2.180,297.200 2.400 C 297.200 2.620,296.750 2.800,296.200 2.800 C 295.650 2.800,295.200 2.980,295.200 3.200 C 295.200 3.420,294.750 3.600,294.200 3.600 C 293.650 3.600,293.200 3.780,293.200 4.000 C 293.200 4.220,292.930 4.400,292.600 4.400 C 292.270 4.400,292.000 4.580,292.000 4.800 C 292.000 5.020,291.640 5.200,291.200 5.200 C 290.760 5.200,290.400 5.380,290.400 5.600 C 290.400 5.820,290.040 6.000,289.600 6.000 C 289.160 6.000,288.800 6.180,288.800 6.400 C 288.800 6.620,288.440 6.800,288.000 6.800 C 287.560 6.800,287.200 6.980,287.200 7.200 C 287.200 7.420,286.840 7.600,286.400 7.600 C 285.960 7.600,285.600 7.750,285.600 7.932 C 285.600 8.115,285.105 8.520,284.500 8.832 C 283.326 9.438,283.150 9.560,281.600 10.842 C 281.050 11.296,280.080 12.058,279.445 12.534 C 278.809 13.010,277.729 14.007,277.045 14.748 C 276.360 15.490,275.035 16.880,274.100 17.838 C 273.165 18.795,272.400 19.765,272.400 19.993 C 272.400 20.221,271.860 20.972,271.200 21.663 C 270.540 22.354,270.000 23.122,270.000 23.371 C 270.000 23.620,269.640 24.083,269.200 24.400 C 268.760 24.717,268.400 25.207,268.400 25.488 C 268.400 25.770,268.264 26.000,268.098 26.000 C 267.931 26.000,267.541 26.585,267.230 27.300 C 266.919 28.015,266.560 28.690,266.432 28.800 C 265.900 29.259,264.400 32.534,264.400 33.238 C 264.400 33.657,264.220 34.000,264.000 34.000 C 263.780 34.000,263.600 34.349,263.600 34.776 C 263.600 35.203,263.420 35.664,263.200 35.800 C 262.980 35.936,262.800 36.399,262.800 36.829 C 262.800 37.259,262.638 37.923,262.439 38.305 C 262.240 38.687,261.868 39.810,261.612 40.800 C 261.356 41.790,260.978 43.153,260.773 43.828 C 260.568 44.504,260.400 45.888,260.400 46.905 C 260.400 47.921,260.227 48.860,260.016 48.990 C 259.248 49.465,260.015 66.497,260.843 67.380 C 261.040 67.589,261.200 68.206,261.200 68.752 C 261.200 69.774,261.832 72.073,262.449 73.295 C 262.642 73.677,262.800 74.442,262.800 74.995 C 262.800 75.548,262.980 76.000,263.200 76.000 C 263.420 76.000,263.600 76.360,263.600 76.800 C 263.600 77.240,263.747 77.600,263.928 77.600 C 264.108 77.600,264.500 78.500,264.800 79.600 C 265.100 80.700,265.470 81.600,265.624 81.600 C 265.777 81.600,266.127 82.140,266.400 82.800 C 266.673 83.460,267.055 84.000,267.249 84.000 C 267.442 84.000,267.600 84.360,267.600 84.800 C 267.600 85.240,267.780 85.600,268.000 85.600 C 268.220 85.600,268.400 85.825,268.401 86.100 C 268.401 86.375,268.941 87.230,269.600 88.000 C 270.259 88.770,270.799 89.512,270.799 89.650 C 270.800 89.930,272.124 91.489,274.800 94.364 C 275.790 95.427,276.865 96.680,277.188 97.149 C 277.512 97.617,277.917 98.000,278.088 98.000 C 278.420 98.000,279.027 98.497,281.333 100.653 C 282.125 101.394,283.010 102.000,283.298 102.000 C 283.587 102.000,284.083 102.360,284.400 102.800 C 284.717 103.240,285.297 103.600,285.688 103.600 C 286.080 103.600,286.400 103.758,286.400 103.951 C 286.400 104.145,286.940 104.527,287.600 104.800 C 288.260 105.073,288.800 105.455,288.800 105.649 C 288.800 105.842,289.034 106.000,289.320 106.000 C 290.056 106.000,291.993 106.941,291.997 107.300 C 291.999 107.465,292.349 107.600,292.776 107.600 C 293.203 107.600,293.658 107.770,293.786 107.977 C 293.914 108.184,294.824 108.475,295.809 108.622 C 296.794 108.770,297.600 109.050,297.600 109.245 C 297.600 109.440,298.140 109.600,298.800 109.600 C 299.460 109.600,300.000 109.780,300.000 110.000 C 300.000 110.220,300.630 110.400,301.400 110.400 C 302.170 110.400,302.800 110.546,302.800 110.725 C 302.800 110.904,303.655 111.094,304.700 111.148 C 305.745 111.201,306.771 111.415,306.980 111.622 C 307.505 112.145,325.200 112.123,325.200 111.600 C 325.200 111.380,326.100 111.200,327.200 111.200 C 328.300 111.200,329.200 111.020,329.200 110.800 C 329.200 110.580,329.920 110.400,330.800 110.400 C 331.680 110.400,332.400 110.220,332.400 110.000 C 332.400 109.780,332.940 109.600,333.600 109.600 C 334.260 109.600,334.800 109.443,334.800 109.251 C 334.800 109.059,335.485 108.793,336.323 108.659 C 337.960 108.397,344.513 105.361,344.733 104.762 C 344.807 104.563,345.146 104.400,345.486 104.400 C 345.827 104.400,346.397 104.084,346.753 103.697 C 347.109 103.311,347.895 102.740,348.500 102.430 C 349.105 102.119,349.600 101.715,349.600 101.532 C 349.600 101.350,349.860 101.200,350.177 101.200 C 350.980 101.200,361.200 90.847,361.200 90.034 C 361.200 89.820,361.515 89.410,361.900 89.123 C 362.285 88.835,362.855 88.105,363.168 87.500 C 363.480 86.895,363.885 86.400,364.068 86.400 C 364.250 86.400,364.400 86.040,364.400 85.600 C 364.400 85.160,364.552 84.800,364.737 84.800 C 364.923 84.800,365.508 83.945,366.037 82.900 C 366.567 81.855,367.135 80.940,367.300 80.867 C 367.465 80.793,367.600 80.298,367.600 79.767 C 367.600 79.235,367.780 78.800,368.000 78.800 C 368.220 78.800,368.400 78.350,368.400 77.800 C 368.400 77.250,368.580 76.800,368.800 76.800 C 369.020 76.800,369.200 76.361,369.200 75.824 C 369.200 75.287,369.380 74.736,369.600 74.600 C 369.820 74.464,370.000 73.813,370.000 73.153 C 370.000 72.493,370.160 72.052,370.357 72.173 C 370.553 72.294,370.815 71.810,370.940 71.097 C 371.065 70.384,371.370 68.810,371.618 67.600 C 372.029 65.596,372.796 57.731,372.769 55.800 C 372.704 51.300,372.275 46.000,371.975 46.000 C 371.769 46.000,371.600 45.100,371.600 44.000 C 371.600 42.900,371.420 42.000,371.200 42.000 C 370.980 42.000,370.800 41.471,370.800 40.824 C 370.800 40.177,370.620 39.536,370.400 39.400 C 370.180 39.264,370.000 38.623,370.000 37.976 C 370.000 37.329,369.820 36.800,369.600 36.800 C 369.380 36.800,369.200 36.350,369.200 35.800 C 369.200 35.250,369.053 34.800,368.872 34.800 C 368.692 34.800,368.300 33.900,368.000 32.800 C 367.700 31.700,367.308 30.800,367.128 30.800 C 366.947 30.800,366.800 30.440,366.800 30.000 C 366.800 29.560,366.620 29.200,366.400 29.200 C 366.180 29.200,366.000 28.930,366.000 28.600 C 366.000 28.270,365.820 28.000,365.600 28.000 C 365.380 28.000,365.200 27.730,365.200 27.400 C 365.200 27.070,365.020 26.800,364.800 26.800 C 364.580 26.800,364.400 26.530,364.400 26.200 C 364.400 25.870,364.220 25.600,364.000 25.600 C 363.780 25.600,363.600 25.280,363.600 24.888 C 363.600 24.497,363.240 23.917,362.800 23.600 C 362.360 23.283,362.000 22.822,362.000 22.575 C 362.000 22.329,361.199 21.280,360.221 20.243 C 359.242 19.207,358.325 17.995,358.184 17.550 C 358.043 17.104,357.853 16.814,357.762 16.904 C 357.672 16.995,356.473 15.969,355.099 14.624 C 352.335 11.919,349.200 9.370,349.200 9.828 C 349.200 9.990,348.864 9.735,348.453 9.261 C 348.042 8.788,347.452 8.400,347.141 8.400 C 346.831 8.400,346.317 8.040,346.000 7.600 C 345.683 7.160,345.103 6.800,344.712 6.800 C 344.320 6.800,344.000 6.620,344.000 6.400 C 344.000 6.180,343.640 6.000,343.200 6.000 C 342.760 6.000,342.399 5.865,342.397 5.700 C 342.393 5.341,340.456 4.400,339.720 4.400 C 339.434 4.400,339.200 4.220,339.200 4.000 C 339.200 3.780,338.750 3.600,338.200 3.600 C 337.650 3.600,337.200 3.459,337.200 3.287 C 337.200 3.115,336.345 2.743,335.300 2.461 C 334.255 2.178,333.087 1.779,332.705 1.573 C 332.323 1.368,331.573 1.200,331.039 1.200 C 330.504 1.200,329.994 0.982,329.905 0.715 C 329.742 0.227,309.807 -0.126,304.900 0.272 M301.240 33.234 C 308.044 35.405,312.177 40.724,312.192 47.328 L 312.200 50.856 310.515 52.428 C 306.852 55.847,301.594 53.961,300.405 48.800 C 299.307 44.035,294.000 43.765,294.000 48.474 C 294.000 51.561,291.286 54.000,287.852 54.000 C 283.254 54.000,280.456 48.673,282.451 43.719 C 285.790 35.427,293.911 30.895,301.240 33.234 M338.440 33.234 C 346.608 35.840,351.995 44.567,349.214 50.692 C 346.624 56.399,337.600 54.367,337.600 48.077 C 337.600 46.011,335.176 44.621,333.018 45.448 C 332.120 45.793,331.200 47.709,331.200 49.233 C 331.200 54.885,321.397 55.646,319.579 50.135 C 316.546 40.947,328.643 30.108,338.440 33.234 M297.090 67.838 C 297.745 67.969,299.523 69.067,301.040 70.279 C 310.904 78.153,322.206 78.002,331.956 69.867 C 339.998 63.156,347.046 72.611,339.252 79.654 C 325.823 91.789,302.768 90.914,291.284 77.835 C 287.362 73.367,291.252 66.670,297.090 67.838 M42.800 136.000 C 42.800 136.222,41.733 136.400,40.400 136.400 C 39.067 136.400,38.000 136.578,38.000 136.800 C 38.000 137.020,37.280 137.200,36.400 137.200 C 35.520 137.200,34.800 137.380,34.800 137.600 C 34.800 137.820,34.260 138.000,33.600 138.000 C 32.940 138.000,32.400 138.180,32.400 138.400 C 32.400 138.620,31.860 138.800,31.200 138.800 C 30.540 138.800,30.000 138.980,30.000 139.200 C 30.000 139.420,29.550 139.600,29.000 139.600 C 28.450 139.600,28.000 139.780,28.000 140.000 C 28.000 140.220,27.730 140.400,27.400 140.400 C 27.070 140.400,26.800 140.580,26.800 140.800 C 26.800 141.020,26.350 141.200,25.800 141.200 C 25.250 141.200,24.800 141.342,24.800 141.516 C 24.800 141.690,23.855 142.315,22.700 142.905 C 21.545 143.495,20.077 144.433,19.438 144.989 C 18.799 145.545,18.130 146.000,17.952 146.000 C 17.557 146.000,9.598 153.862,9.557 154.293 C 9.502 154.860,8.231 156.800,7.914 156.800 C 7.741 156.800,7.600 157.120,7.600 157.512 C 7.600 157.903,7.240 158.483,6.800 158.800 C 6.360 159.117,6.000 159.607,6.000 159.888 C 6.000 160.170,5.820 160.400,5.600 160.400 C 5.380 160.400,5.200 160.760,5.200 161.200 C 5.200 161.640,5.020 162.000,4.800 162.000 C 4.580 162.000,4.400 162.253,4.400 162.562 C 4.400 163.047,3.848 164.320,2.350 167.295 C 2.157 167.677,2.000 168.262,2.000 168.595 C 2.000 168.928,1.820 169.200,1.600 169.200 C 1.380 169.200,1.200 169.905,1.200 170.767 C 1.200 171.664,0.987 172.404,0.700 172.500 C -0.035 172.745,-0.035 364.055,0.700 364.300 C 0.975 364.392,1.200 364.992,1.200 365.633 C 1.200 366.275,1.380 366.800,1.600 366.800 C 1.820 366.800,2.000 367.340,2.000 368.000 C 2.000 368.660,2.180 369.200,2.400 369.200 C 2.620 369.200,2.800 369.650,2.800 370.200 C 2.800 370.750,2.980 371.200,3.200 371.200 C 3.420 371.200,3.600 371.453,3.600 371.762 C 3.600 372.556,5.264 375.674,6.100 376.447 C 6.485 376.803,6.800 377.388,6.800 377.747 C 6.800 378.106,6.980 378.400,7.200 378.400 C 7.420 378.400,7.600 378.678,7.600 379.018 C 7.600 379.358,8.050 380.086,8.600 380.636 C 9.150 381.186,9.600 381.805,9.600 382.011 C 9.600 382.826,16.525 389.859,17.692 390.229 C 18.082 390.353,18.400 390.593,18.400 390.763 C 18.400 390.932,19.118 391.415,19.995 391.836 C 20.873 392.256,21.593 392.735,21.595 392.900 C 21.598 393.065,21.920 393.200,22.312 393.200 C 22.703 393.200,23.283 393.560,23.600 394.000 C 23.917 394.440,24.482 394.800,24.855 394.800 C 25.228 394.800,25.593 394.935,25.667 395.100 C 25.888 395.599,29.222 397.200,30.038 397.200 C 30.457 397.200,30.800 397.380,30.800 397.600 C 30.800 397.820,31.340 398.000,32.000 398.000 C 32.660 398.000,33.200 398.180,33.200 398.400 C 33.200 398.620,33.725 398.800,34.367 398.800 C 35.008 398.800,35.608 399.025,35.700 399.300 C 35.942 400.027,60.857 400.027,61.100 399.300 C 61.192 399.025,61.792 398.800,62.433 398.800 C 63.075 398.800,63.600 398.620,63.600 398.400 C 63.600 398.180,64.140 398.000,64.800 398.000 C 65.460 398.000,66.000 397.820,66.000 397.600 C 66.000 397.380,66.540 397.200,67.200 397.200 C 67.860 397.200,68.400 397.020,68.400 396.800 C 68.400 396.580,68.760 396.400,69.200 396.400 C 69.640 396.400,70.000 396.220,70.000 396.000 C 70.000 395.780,70.360 395.600,70.800 395.600 C 71.240 395.600,71.600 395.420,71.600 395.200 C 71.600 394.980,71.920 394.800,72.312 394.800 C 72.703 394.800,73.283 394.440,73.600 394.000 C 73.917 393.560,74.407 393.200,74.688 393.200 C 74.970 393.200,75.200 393.020,75.200 392.800 C 75.200 392.580,75.478 392.400,75.817 392.400 C 76.156 392.400,76.651 392.217,76.917 391.993 C 78.751 390.446,79.362 390.000,79.646 390.000 C 80.129 390.000,87.200 382.897,87.200 382.412 C 87.200 382.181,87.740 381.428,88.400 380.737 C 89.060 380.046,89.600 379.238,89.600 378.941 C 89.600 378.643,89.780 378.400,90.000 378.400 C 90.220 378.400,90.400 378.040,90.400 377.600 C 90.400 377.160,90.541 376.800,90.714 376.800 C 90.886 376.800,91.561 375.630,92.214 374.201 C 92.866 372.771,93.535 371.601,93.700 371.601 C 93.865 371.600,94.000 371.060,94.000 370.400 C 94.000 369.740,94.180 369.200,94.400 369.200 C 94.620 369.200,94.800 368.660,94.800 368.000 C 94.800 367.340,94.980 366.800,95.200 366.800 C 95.420 366.800,95.600 366.260,95.600 365.600 C 95.600 364.940,95.780 364.400,96.000 364.400 C 96.220 364.400,96.400 363.695,96.400 362.833 C 96.400 361.972,96.535 361.207,96.700 361.133 C 97.953 360.576,96.403 169.200,95.145 169.200 C 94.955 169.200,94.800 168.660,94.800 168.000 C 94.800 167.340,94.620 166.800,94.400 166.800 C 94.180 166.800,94.000 166.440,94.000 166.000 C 94.000 165.560,93.820 165.200,93.600 165.200 C 93.380 165.200,93.200 164.840,93.200 164.400 C 93.200 163.960,93.020 163.600,92.800 163.600 C 92.580 163.600,92.400 163.240,92.400 162.800 C 92.400 162.360,92.243 162.000,92.050 162.000 C 91.858 162.000,91.591 161.457,91.458 160.792 C 91.326 160.128,90.853 159.194,90.408 158.717 C 89.964 158.240,89.600 157.653,89.600 157.413 C 89.600 157.173,89.240 156.717,88.800 156.400 C 88.360 156.083,88.000 155.602,88.000 155.331 C 88.000 154.754,78.589 145.200,78.021 145.200 C 77.809 145.200,77.141 144.705,76.536 144.100 C 75.931 143.495,75.384 143.043,75.321 143.095 C 75.088 143.285,72.400 141.842,72.400 141.526 C 72.400 141.347,72.166 141.200,71.880 141.200 C 71.144 141.200,69.207 140.259,69.203 139.900 C 69.201 139.735,68.660 139.600,68.000 139.600 C 67.340 139.600,66.800 139.420,66.800 139.200 C 66.800 138.980,66.451 138.800,66.024 138.800 C 65.597 138.800,65.136 138.620,65.000 138.400 C 64.864 138.180,64.133 138.000,63.376 138.000 C 62.619 138.000,62.000 137.820,62.000 137.600 C 62.000 137.380,61.280 137.200,60.400 137.200 C 59.520 137.200,58.800 137.020,58.800 136.800 C 58.800 136.580,57.810 136.400,56.600 136.400 C 55.390 136.400,54.400 136.220,54.400 136.000 C 54.400 135.752,52.200 135.600,48.600 135.600 C 45.000 135.600,42.800 135.752,42.800 136.000 M53.247 334.169 C 66.788 338.279,69.762 356.508,58.150 364.216 C 43.674 373.825,25.967 359.014,33.094 343.257 C 36.383 335.983,45.572 331.840,53.247 334.169 " stroke="none" fill="#9df1c7" fill-rule="evenodd"></path><path id="path1" d="M190.000 0.270 C 189.230 0.373,188.429 0.624,188.220 0.829 C 188.011 1.033,187.533 1.200,187.158 1.200 C 186.311 1.200,183.200 2.830,183.200 3.274 C 183.200 3.453,182.964 3.600,182.675 3.600 C 182.387 3.600,181.764 3.960,181.292 4.400 C 180.820 4.840,180.313 5.200,180.165 5.200 C 179.624 5.200,174.845 10.449,174.333 11.606 C 174.043 12.263,173.669 12.800,173.502 12.800 C 173.336 12.800,173.200 13.070,173.200 13.400 C 173.200 13.730,173.020 14.000,172.800 14.000 C 172.580 14.000,172.400 14.266,172.400 14.590 C 172.400 14.915,172.041 15.770,171.601 16.490 C 171.162 17.211,170.802 18.100,170.801 18.467 C 170.801 18.833,170.665 19.193,170.500 19.267 C 170.068 19.459,168.400 22.772,168.400 23.438 C 168.400 23.747,168.220 24.000,168.000 24.000 C 167.780 24.000,167.600 24.360,167.600 24.800 C 167.600 25.240,167.420 25.600,167.200 25.600 C 166.980 25.600,166.800 25.945,166.800 26.367 C 166.800 26.788,166.657 27.193,166.482 27.267 C 166.194 27.387,165.033 29.670,160.634 38.766 C 159.845 40.397,159.200 41.972,159.200 42.266 C 159.200 42.560,159.020 42.800,158.800 42.800 C 158.580 42.800,158.400 43.160,158.400 43.600 C 158.400 44.040,158.220 44.400,158.000 44.400 C 157.780 44.400,157.600 44.760,157.600 45.200 C 157.600 45.640,157.420 46.000,157.200 46.000 C 156.980 46.000,156.800 46.360,156.800 46.800 C 156.800 47.240,156.620 47.600,156.400 47.600 C 156.180 47.600,156.000 47.852,156.000 48.159 C 156.000 48.467,155.460 49.745,154.800 51.000 C 154.140 52.255,153.600 53.533,153.600 53.841 C 153.600 54.148,153.465 54.401,153.300 54.403 C 152.941 54.407,152.000 56.344,152.000 57.080 C 152.000 57.366,151.820 57.600,151.600 57.600 C 151.380 57.600,151.200 57.960,151.200 58.400 C 151.200 58.840,151.020 59.200,150.800 59.200 C 150.580 59.200,150.400 59.545,150.400 59.967 C 150.400 60.388,150.259 60.793,150.087 60.867 C 149.745 61.012,142.800 75.043,142.800 75.589 C 142.800 76.087,141.048 79.379,140.700 79.533 C 140.535 79.607,140.400 80.001,140.400 80.410 C 140.400 80.818,140.220 81.264,140.000 81.400 C 139.780 81.536,139.600 81.997,139.600 82.424 C 139.600 82.851,139.420 83.200,139.200 83.200 C 138.980 83.200,138.800 83.560,138.800 84.000 C 138.800 84.440,138.620 84.800,138.400 84.800 C 138.180 84.800,138.000 85.160,138.000 85.600 C 138.000 86.040,137.820 86.400,137.600 86.400 C 137.380 86.400,137.200 86.760,137.200 87.200 C 137.200 87.640,137.020 88.000,136.800 88.000 C 136.580 88.000,136.400 88.360,136.400 88.800 C 136.400 89.240,136.220 89.600,136.000 89.600 C 135.780 89.600,135.600 89.960,135.600 90.400 C 135.600 90.840,135.420 91.200,135.200 91.200 C 134.980 91.200,134.800 91.560,134.800 92.000 C 134.800 92.440,134.620 92.800,134.400 92.800 C 134.180 92.800,134.000 93.072,134.000 93.405 C 134.000 93.961,133.278 95.522,132.800 96.000 C 132.533 96.267,129.556 102.306,127.970 105.800 C 127.270 107.340,126.271 109.489,125.749 110.575 C 125.227 111.661,124.800 112.786,124.800 113.075 C 124.800 113.364,124.665 113.601,124.500 113.603 C 124.141 113.607,123.200 115.544,123.200 116.280 C 123.200 116.566,123.020 116.800,122.800 116.800 C 122.580 116.800,122.400 117.160,122.400 117.600 C 122.400 118.040,122.220 118.400,122.000 118.400 C 121.780 118.400,121.600 118.760,121.600 119.200 C 121.600 119.640,121.420 120.000,121.200 120.000 C 120.980 120.000,120.800 120.360,120.800 120.800 C 120.800 121.240,120.620 121.600,120.400 121.600 C 120.180 121.600,120.000 121.960,120.000 122.400 C 120.000 122.840,119.820 123.200,119.600 123.200 C 119.380 123.200,119.200 123.560,119.200 124.000 C 119.200 124.440,119.020 124.800,118.800 124.800 C 118.580 124.800,118.400 125.160,118.400 125.600 C 118.400 126.040,118.220 126.400,118.000 126.400 C 117.780 126.400,117.600 126.760,117.600 127.200 C 117.600 127.640,117.420 128.000,117.200 128.000 C 116.980 128.000,116.800 128.360,116.800 128.800 C 116.800 129.240,116.620 129.600,116.400 129.600 C 116.180 129.600,116.000 129.798,116.000 130.039 C 116.000 130.281,114.660 133.206,113.023 136.539 C 111.385 139.873,109.990 142.870,109.923 143.200 C 109.855 143.530,109.710 143.890,109.600 144.000 C 109.122 144.478,108.400 146.039,108.400 146.595 C 108.400 146.928,108.220 147.200,108.000 147.200 C 107.780 147.200,107.600 147.560,107.600 148.000 C 107.600 148.440,107.420 148.800,107.200 148.800 C 106.980 148.800,106.800 149.160,106.800 149.600 C 106.800 150.040,106.620 150.400,106.400 150.400 C 106.180 150.400,106.000 150.760,106.000 151.200 C 106.000 151.640,105.820 152.000,105.600 152.000 C 105.380 152.000,105.200 152.360,105.200 152.800 C 105.200 153.240,105.020 153.600,104.800 153.600 C 104.580 153.600,104.400 153.960,104.400 154.400 C 104.400 154.840,104.220 155.200,104.000 155.200 C 103.780 155.200,103.600 155.560,103.600 156.000 C 103.600 156.440,103.420 156.800,103.200 156.800 C 102.980 156.800,102.800 157.160,102.800 157.600 C 102.800 158.040,102.620 158.400,102.400 158.400 C 102.180 158.400,102.000 158.760,102.000 159.200 C 102.000 159.640,101.820 160.000,101.600 160.000 C 101.380 160.000,101.200 160.360,101.200 160.800 C 101.200 161.240,101.020 161.600,100.800 161.600 C 100.580 161.600,100.400 161.960,100.400 162.400 C 100.400 162.840,100.220 163.200,100.000 163.200 C 99.780 163.200,99.600 163.374,99.600 163.587 C 99.600 163.800,98.880 165.448,98.000 167.249 C 97.120 169.050,96.400 170.750,96.400 171.028 C 96.400 171.306,96.175 171.638,95.900 171.767 C 95.500 171.953,95.500 172.047,95.900 172.233 C 96.184 172.366,96.400 173.195,96.400 174.153 C 96.400 175.081,96.625 176.065,96.900 176.340 C 97.297 176.737,97.400 195.629,97.400 268.120 L 97.400 359.400 99.400 361.249 C 100.500 362.266,102.025 363.616,102.790 364.249 C 103.554 364.882,105.470 366.660,107.047 368.200 C 108.624 369.740,110.945 371.900,112.204 373.000 C 113.462 374.100,115.096 375.585,115.833 376.300 C 116.570 377.015,117.359 377.600,117.587 377.600 C 117.814 377.600,118.000 377.780,118.000 378.000 C 118.000 378.220,118.182 378.400,118.404 378.400 C 118.626 378.400,119.372 378.940,120.063 379.600 C 120.754 380.260,121.496 380.800,121.712 380.800 C 121.929 380.800,122.397 381.116,122.753 381.503 C 123.109 381.889,123.895 382.460,124.500 382.770 C 125.105 383.081,125.600 383.485,125.600 383.668 C 125.600 383.850,125.920 384.000,126.312 384.000 C 126.703 384.000,127.283 384.360,127.600 384.800 C 127.917 385.240,128.334 385.600,128.527 385.600 C 128.719 385.600,129.385 385.962,130.006 386.404 C 131.515 387.479,138.442 390.933,139.088 390.933 C 139.370 390.933,139.600 391.083,139.600 391.267 C 139.600 391.450,139.949 391.600,140.376 391.600 C 140.803 391.600,141.264 391.780,141.400 392.000 C 141.536 392.220,142.087 392.400,142.624 392.400 C 143.161 392.400,143.601 392.535,143.603 392.700 C 143.607 393.106,145.586 394.000,146.480 394.000 C 146.876 394.000,147.200 394.180,147.200 394.400 C 147.200 394.620,147.740 394.800,148.400 394.800 C 149.060 394.800,149.600 394.980,149.600 395.200 C 149.600 395.420,150.140 395.600,150.800 395.600 C 151.460 395.600,152.000 395.780,152.000 396.000 C 152.000 396.220,152.529 396.400,153.176 396.400 C 153.823 396.400,154.464 396.580,154.600 396.800 C 154.736 397.020,155.467 397.200,156.224 397.200 C 156.981 397.200,157.600 397.362,157.600 397.560 C 157.600 397.758,158.365 398.022,159.300 398.147 C 160.235 398.272,161.810 398.481,162.800 398.610 C 163.790 398.739,165.032 399.060,165.561 399.323 C 166.997 400.036,327.262 400.014,327.500 399.300 C 327.592 399.025,328.192 398.800,328.833 398.800 C 329.475 398.800,330.000 398.620,330.000 398.400 C 330.000 398.180,330.540 398.000,331.200 398.000 C 331.860 398.000,332.400 397.854,332.400 397.675 C 332.400 397.496,333.030 397.102,333.800 396.800 C 334.570 396.498,335.200 396.104,335.200 395.925 C 335.200 395.746,335.470 395.600,335.800 395.600 C 336.130 395.600,336.400 395.420,336.400 395.200 C 336.400 394.980,336.670 394.800,337.000 394.800 C 337.330 394.800,337.600 394.620,337.600 394.400 C 337.600 394.180,337.772 394.000,337.983 394.000 C 338.467 394.000,344.800 387.615,344.800 387.127 C 344.800 386.929,345.160 386.380,345.600 385.908 C 346.040 385.436,346.400 384.813,346.400 384.525 C 346.400 384.236,346.580 384.000,346.800 384.000 C 347.020 384.000,347.200 383.640,347.200 383.200 C 347.200 382.760,347.380 382.400,347.600 382.400 C 347.820 382.400,348.000 382.040,348.000 381.600 C 348.000 381.160,348.180 380.800,348.400 380.800 C 348.620 380.800,348.800 380.350,348.800 379.800 C 348.800 379.250,348.980 378.800,349.200 378.800 C 349.420 378.800,349.600 378.185,349.600 377.433 C 349.600 376.682,349.770 376.007,349.979 375.933 C 350.187 375.860,350.400 374.945,350.453 373.900 C 350.506 372.855,350.696 372.000,350.875 372.000 C 351.054 372.000,351.200 369.840,351.200 367.200 C 351.200 364.267,351.044 362.400,350.800 362.400 C 350.580 362.400,350.400 361.500,350.400 360.400 C 350.400 359.300,350.220 358.400,350.000 358.400 C 349.780 358.400,349.600 357.860,349.600 357.200 C 349.600 356.540,349.420 356.000,349.200 356.000 C 348.980 356.000,348.800 355.657,348.800 355.238 C 348.800 354.422,347.199 351.088,346.700 350.867 C 346.535 350.793,346.400 350.478,346.400 350.167 C 346.400 349.855,346.220 349.600,346.000 349.600 C 345.780 349.600,345.600 349.337,345.600 349.015 C 345.600 348.694,344.880 347.718,344.000 346.847 C 343.120 345.976,342.400 345.167,342.400 345.050 C 342.400 344.679,340.381 342.800,339.982 342.800 C 339.772 342.800,339.600 342.659,339.600 342.486 C 339.600 341.800,337.391 340.927,336.400 341.222 C 335.850 341.386,329.582 341.538,322.472 341.560 L 309.544 341.600 307.773 340.381 C 303.660 337.551,303.784 331.954,308.005 329.932 C 310.511 328.730,334.797 328.418,337.217 329.555 C 339.055 330.420,340.414 332.103,340.807 334.000 C 341.019 335.023,344.374 335.330,344.733 334.360 C 344.807 334.162,345.291 334.000,345.810 334.000 C 346.328 334.000,346.864 333.820,347.000 333.600 C 347.136 333.380,347.597 333.200,348.024 333.200 C 348.451 333.200,348.800 333.020,348.800 332.800 C 348.800 332.580,349.160 332.400,349.600 332.400 C 350.040 332.400,350.400 332.220,350.400 332.000 C 350.400 331.780,350.760 331.600,351.200 331.600 C 351.640 331.600,352.000 331.432,352.000 331.227 C 352.000 331.022,352.366 330.738,352.813 330.596 C 353.260 330.454,354.062 329.902,354.595 329.369 C 355.128 328.836,355.674 328.400,355.808 328.400 C 356.377 328.400,361.200 323.029,361.200 322.395 C 361.200 322.178,361.380 322.000,361.600 322.000 C 361.820 322.000,362.000 321.730,362.000 321.400 C 362.000 321.070,362.180 320.800,362.400 320.800 C 362.620 320.800,362.800 320.545,362.800 320.233 C 362.800 319.922,362.935 319.607,363.100 319.533 C 363.599 319.312,365.200 315.978,365.200 315.162 C 365.200 314.743,365.380 314.400,365.600 314.400 C 365.820 314.400,366.000 313.860,366.000 313.200 C 366.000 312.540,366.180 312.000,366.400 312.000 C 366.620 312.000,366.800 311.291,366.800 310.424 C 366.800 309.557,366.980 308.736,367.200 308.600 C 367.435 308.455,367.600 306.129,367.600 302.976 C 367.600 299.659,367.447 297.600,367.200 297.600 C 366.980 297.600,366.800 296.801,366.800 295.824 C 366.800 294.847,366.620 293.936,366.400 293.800 C 366.180 293.664,366.000 293.023,366.000 292.376 C 366.000 291.729,365.865 291.199,365.700 291.197 C 365.341 291.193,364.400 289.256,364.400 288.520 C 364.400 288.234,364.220 288.000,364.000 288.000 C 363.780 288.000,363.600 287.640,363.600 287.200 C 363.600 286.760,363.420 286.400,363.200 286.400 C 362.980 286.400,362.800 286.080,362.800 285.688 C 362.800 285.297,362.440 284.717,362.000 284.400 C 361.560 284.083,361.200 283.593,361.200 283.312 C 361.200 283.030,361.020 282.800,360.800 282.800 C 360.580 282.800,360.389 282.575,360.375 282.300 C 360.361 282.025,359.236 280.741,357.875 279.446 L 355.400 277.092 336.600 277.046 C 319.080 277.003,317.697 276.949,316.292 276.251 C 311.881 274.058,311.781 267.266,316.133 265.456 C 317.548 264.868,347.619 264.202,351.575 264.671 C 354.138 264.975,357.200 267.539,357.200 269.382 C 357.200 270.571,358.868 271.200,360.055 270.459 C 360.459 270.206,361.064 270.000,361.400 270.000 C 361.736 270.000,362.323 269.840,362.705 269.644 C 363.087 269.448,364.300 268.865,365.400 268.349 C 366.500 267.833,367.490 267.318,367.600 267.205 C 367.710 267.091,368.337 266.729,368.994 266.399 C 370.535 265.626,371.341 264.980,373.354 262.901 C 377.910 258.198,379.327 256.415,379.871 254.700 C 379.993 254.315,380.252 254.000,380.447 254.000 C 380.641 254.000,380.800 253.640,380.800 253.200 C 380.800 252.760,380.980 252.400,381.200 252.400 C 381.420 252.400,381.600 251.950,381.600 251.400 C 381.600 250.850,381.780 250.400,382.000 250.400 C 382.220 250.400,382.400 249.860,382.400 249.200 C 382.400 248.540,382.562 248.000,382.760 248.000 C 383.592 248.000,384.409 233.849,383.622 233.062 C 383.390 232.830,383.200 231.967,383.200 231.144 C 383.200 230.321,383.020 229.536,382.800 229.400 C 382.580 229.264,382.400 228.724,382.400 228.200 C 382.400 227.676,382.220 227.136,382.000 227.000 C 381.780 226.864,381.600 226.328,381.600 225.810 C 381.600 225.291,381.465 224.807,381.300 224.733 C 380.924 224.566,379.625 222.436,379.329 221.500 C 379.207 221.115,378.948 220.800,378.753 220.800 C 378.559 220.800,378.400 220.559,378.400 220.264 C 378.400 219.969,377.635 218.900,376.700 217.890 C 375.765 216.879,374.730 215.722,374.400 215.319 C 372.328 212.788,370.945 212.066,368.976 212.486 C 365.166 213.299,334.060 212.709,332.226 211.789 C 327.967 209.654,327.693 203.802,331.738 201.368 C 333.280 200.440,366.136 199.575,369.138 200.383 C 371.097 200.911,373.069 202.690,373.410 204.239 C 373.918 206.539,373.897 206.520,375.707 206.206 C 376.638 206.044,377.625 205.902,377.900 205.889 C 378.175 205.877,378.400 205.717,378.400 205.533 C 378.400 205.350,378.724 205.200,379.120 205.200 C 379.516 205.200,380.011 205.049,380.220 204.864 C 380.429 204.679,381.230 204.286,382.000 203.991 C 383.522 203.406,388.118 200.458,388.333 199.928 C 388.407 199.747,388.722 199.600,389.033 199.600 C 389.345 199.600,389.600 199.452,389.600 199.272 C 389.600 199.092,390.590 197.897,391.800 196.618 C 393.010 195.338,394.000 194.112,394.000 193.893 C 394.000 193.673,394.329 193.203,394.730 192.847 C 395.132 192.491,395.716 191.615,396.028 190.900 C 396.340 190.185,396.731 189.600,396.898 189.600 C 397.064 189.600,397.200 189.335,397.200 189.012 C 397.200 188.689,397.560 187.783,398.000 187.000 C 398.440 186.217,398.800 185.257,398.800 184.868 C 398.800 184.479,399.025 183.935,399.300 183.660 C 399.672 183.288,399.800 180.698,399.800 173.514 C 399.800 166.152,399.682 163.827,399.300 163.700 C 399.025 163.608,398.800 163.098,398.800 162.567 C 398.800 162.035,398.620 161.600,398.400 161.600 C 398.180 161.600,398.000 161.184,398.000 160.675 C 398.000 160.167,397.640 159.364,397.200 158.892 C 396.760 158.420,396.400 157.756,396.400 157.417 C 396.400 157.078,396.220 156.800,396.000 156.800 C 395.780 156.800,395.600 156.480,395.600 156.088 C 395.600 155.697,395.240 155.117,394.800 154.800 C 394.360 154.483,394.000 154.022,394.000 153.776 C 394.000 152.479,385.176 144.800,383.685 144.800 C 383.455 144.800,383.207 144.642,383.133 144.449 C 382.917 143.879,377.271 142.000,375.776 142.000 C 375.019 142.000,374.400 141.820,374.400 141.600 C 374.400 141.335,349.667 141.200,301.000 141.200 L 227.600 141.200 227.600 81.624 C 227.600 42.337,227.464 21.963,227.200 21.800 C 226.980 21.664,226.800 21.023,226.800 20.376 C 226.800 19.729,226.620 19.200,226.400 19.200 C 226.180 19.200,226.000 18.660,226.000 18.000 C 226.000 17.340,225.843 16.800,225.650 16.800 C 225.457 16.800,225.193 16.266,225.063 15.614 C 224.852 14.560,223.927 13.038,221.696 10.075 C 220.487 8.469,217.825 6.000,217.302 6.000 C 217.026 6.000,216.800 5.850,216.800 5.668 C 216.800 5.485,216.305 5.081,215.700 4.770 C 215.095 4.460,214.309 3.889,213.953 3.503 C 213.597 3.116,213.012 2.800,212.653 2.800 C 212.294 2.800,212.000 2.620,212.000 2.400 C 212.000 2.180,211.460 2.000,210.800 2.000 C 210.140 2.000,209.600 1.820,209.600 1.600 C 209.600 1.380,209.255 1.200,208.833 1.200 C 208.412 1.200,207.993 0.979,207.903 0.710 C 207.737 0.211,193.135 -0.147,190.000 0.270 " stroke="none" fill="#fcdad1" fill-rule="evenodd"></path><path id="path2" d="M292.600 33.548 C 283.417 36.726,278.564 48.423,284.537 52.979 C 288.004 55.624,293.164 53.378,293.831 48.935 C 294.587 43.892,299.262 43.607,300.424 48.533 C 302.424 57.013,312.844 55.530,312.326 46.839 C 311.761 37.344,301.537 30.455,292.600 33.548 M330.600 33.262 C 320.633 36.572,315.288 49.722,322.412 53.406 C 326.124 55.326,331.200 52.540,331.200 48.582 C 331.200 47.181,332.541 45.352,333.799 45.036 C 335.715 44.555,337.600 46.078,337.600 48.106 C 337.600 55.109,347.698 56.132,349.618 49.323 C 352.081 40.591,339.788 30.210,330.600 33.262 M294.473 67.927 C 292.592 68.108,290.171 70.603,289.812 72.731 C 288.674 79.464,303.713 88.385,316.200 88.385 C 326.862 88.385,341.514 80.927,342.640 74.927 C 343.681 69.379,336.465 65.478,332.498 69.445 C 323.888 78.055,310.390 78.317,300.664 70.062 C 298.297 68.053,297.180 67.668,294.473 67.927 M43.370 334.349 C 25.050 340.601,29.471 367.326,48.800 367.170 C 61.046 367.071,68.953 353.761,63.397 342.600 C 59.923 335.621,50.736 331.835,43.370 334.349 " stroke="none" fill="#fbfcfb" fill-rule="evenodd"></path><path id="path3" d="M96.305 174.800 C 96.407 176.010,96.605 217.770,96.745 267.600 C 96.900 322.715,97.129 355.928,97.330 352.400 C 97.874 342.860,97.494 177.036,96.928 176.354 C 96.668 176.040,96.379 175.068,96.287 174.192 C 96.194 173.316,96.202 173.590,96.305 174.800 M31.293 350.400 C 31.293 351.170,31.375 351.485,31.476 351.100 C 31.576 350.715,31.576 350.085,31.476 349.700 C 31.375 349.315,31.293 349.630,31.293 350.400 " stroke="none" fill="#f4dcd4" fill-rule="evenodd"></path><path id="path4" d="M344.200 200.367 C 331.585 200.629,331.278 200.700,329.590 203.703 C 327.917 206.679,329.063 210.196,332.226 211.796 C 333.886 212.636,365.865 213.061,370.368 212.302 C 372.990 211.861,376.337 206.791,374.349 206.271 C 373.911 206.156,373.600 205.719,373.600 205.218 C 373.600 200.168,371.376 199.801,344.200 200.367 M328.200 264.788 C 320.895 264.926,316.634 265.164,315.947 265.472 C 313.104 266.747,311.976 271.565,313.892 274.251 C 315.865 277.017,315.727 277.000,336.200 277.000 L 354.600 277.000 356.183 275.500 C 357.054 274.675,357.648 274.000,357.504 274.000 C 357.359 274.000,357.519 273.335,357.858 272.522 C 358.419 271.181,358.417 271.001,357.838 270.578 C 357.487 270.322,357.200 269.722,357.200 269.245 C 357.200 268.757,356.447 267.625,355.475 266.654 C 353.002 264.181,354.562 264.288,328.200 264.788 M315.380 329.178 C 307.862 329.423,307.086 329.656,305.582 332.122 C 303.889 334.899,304.801 338.337,307.773 340.381 L 309.544 341.600 322.275 341.600 C 329.277 341.600,335.559 341.441,336.236 341.247 C 336.971 341.036,337.736 341.044,338.134 341.267 C 338.557 341.504,338.800 341.496,338.800 341.245 C 338.800 341.027,339.340 340.258,340.000 339.536 C 340.737 338.729,341.200 337.788,341.200 337.098 C 341.200 336.469,341.464 335.874,341.800 335.745 C 342.619 335.430,342.559 334.876,341.714 334.944 C 341.282 334.979,340.948 334.629,340.814 334.000 C 339.698 328.782,337.910 328.443,315.380 329.178 " stroke="none" fill="#fcbcac" fill-rule="evenodd"></path></g></svg>